<svg xmlns="http://www.w3.org/2000/svg" xmlns:xlink="http://www.w3.org/1999/xlink" height="267.587" width="267.587" xmlns:v="https://vecta.io/nano"><style><![CDATA[.B{fill:#fdb07b}.C{fill:#571338}.D{fill:#e68a65}.E{fill:#66333b}.F{writing-mode:lr-tb}.G{fill:#f47769}.H{fill:#781a36}.I{fill:#8a1e59}.J{fill:#f19d70}.K{opacity:.5}.L{opacity:.4}.M{font-size:39px}.N{font-family:FMSandhyanee}.O{font-size:29.842px}.P{font-family:FMRashmee}.Q{fill:#fedfca}.R{fill:#fff}.S{opacity:.7}.T{fill:#ffcbbd}.U{fill:#b11d3d}.V{fill:#ffaba8}.W{fill:#f26d91}]]></style><defs><clipPath id="A"><path d="M0 1080h1920V0H0z"/></clipPath><clipPath id="B"><path d="M1737.239 147.879c-4.858-.688-8.668-4.382-9.431-9.145h0c-2.973-18.58-3.305-37.178-1.008-55.792h0c.286-2.318 1.927-4.228 4.144-4.964h0c12.472-4.139 28.121-3.737 43.527 2.186h0c13.536 5.203 24.477 13.743 31.507 23.557h0c2.841 3.966 4.296 8.772 4.097 13.648h0a199.56 199.56 0 0 1-1.959 20.855h0c-.702 4.772-4.465 8.515-9.313 9.264h0c-10.69 1.652-21.389 2.479-32.089 2.479h0c-9.822 0-19.645-.696-29.475-2.088"/></clipPath><radialGradient id="C" spreadMethod="pad" gradientTransform="matrix(89.075714,-0.5660693,-0.580221,-91.292824,1773.9929,81.581635)" r="1" cy="0" cx="0" fy="0" fx="0" xlink:href="#BP"><stop offset="0" stop-color="#f35248"/><stop offset="1" stop-color="#d82d25"/></radialGradient><clipPath id="D"><path d="M0 1080h1920V0H0z"/></clipPath><clipPath id="E"><path d="M0 1080h1920V0H0z"/></clipPath><clipPath id="F"><path d="M1598.544 147.879c-4.857-.688-8.668-4.382-9.43-9.145h0c-2.974-18.58-3.305-37.178-1.008-55.792h0c.286-2.318 1.928-4.228 4.144-4.964h0c12.472-4.139 28.121-3.737 43.527 2.186h0c13.534 5.203 24.477 13.743 31.506 23.557h0c2.842 3.966 4.297 8.772 4.097 13.648h0a199.56 199.56 0 0 1-1.959 20.855h0c-.701 4.772-4.464 8.515-9.312 9.264h0c-10.691 1.652-21.389 2.479-32.09 2.479h0c-9.821 0-19.645-.696-29.475-2.088"/></clipPath><radialGradient id="G" spreadMethod="pad" gradientTransform="matrix(89.075714,-0.5660693,-0.580221,-91.292824,1635.2981,81.581635)" r="1" cy="0" cx="0" fy="0" fx="0" xlink:href="#BP"><stop offset="0" stop-color="#f35248"/><stop offset="1" stop-color="#d82d25"/></radialGradient><clipPath id="H"><path d="M0 1080h1920V0H0z"/></clipPath><clipPath id="I"><path d="M0 1080h1920V0H0z"/></clipPath><clipPath id="J"><path d="M1697.51 420.394c.987-.494 6.662-3.949 8.143-8.883h0c1.48-4.936-4.689-7.897-4.689-7.897h0l2.221-4.689c4.442 2.468 6.17 8.39 4.195 14.806h0c-1.974 6.416-6.909 9.377-6.909 9.377h0s-3.949-2.221-2.961-2.714"/></clipPath><linearGradient id="K" spreadMethod="pad" y2="411.017" x2="1708.19" y1="411.017" x1="1697.351" xlink:href="#BP"><stop offset="0" stop-color="#f07160"/><stop offset=".005" stop-color="#f07160"/><stop offset="1" stop-color="#db5746"/></linearGradient><clipPath id="L"><path d="M0 1080h1920V0H0z"/></clipPath><clipPath id="M"><path d="M1627.94 463.534h95.48V323.052h-95.48z"/></clipPath><clipPath id="N"><path d="M1653.832 351.3c.247-14.56.247-25.911 17.026-23.443h0c16.781 2.466 14.807 7.896 14.807 7.896h0l-6.663 1.974s-10.612-7.897-18.014-3.948h0c-7.403 3.948-4.442 15.546-2.96 21.715h0c1.48 6.169-7.157 16.04-5.43 19.495h0c1.727 3.455-2.961 3.701-2.961 3.701h0c-8.637-1.727 3.948-12.832 4.195-27.39"/></clipPath><linearGradient id="O" spreadMethod="pad" gradientTransform="matrix(-5.593349,16.780098,16.780098,5.593349,1669.9236,337.22336)" y2="0" x2="1" y1="0" x1="0" xlink:href="#BP"><stop offset="0" stop-color="#f07160"/><stop offset=".005" stop-color="#f07160"/><stop offset="1" stop-color="#db5746"/></linearGradient><clipPath id="P"><path d="M1627.428 392.016c1.48-6.416 6.416-6.17 10.611-14.56h0c4.195-8.389-1.727-15.546 8.389-18.014h0c10.118-2.468 15.547 9.377 15.547 9.377h0l-4.195 2.715c-3.207-8.637-13.325-6.663-14.312 2.961h0c-.988 9.624-8.144 11.844-11.352 16.78h0c-3.208 4.936 5.676 16.04 5.676 16.04h0l-4.196 3.455s-8.901-6.914-6.168-18.754"/></clipPath><linearGradient id="Q" spreadMethod="pad" gradientTransform="matrix(-5.2643414,14.805984,14.805984,5.2643414,1649.8851,365.71811)" y2="0" x2="1" y1="0" x1="0" xlink:href="#BP"><stop offset="0" stop-color="#f07160"/><stop offset=".005" stop-color="#f07160"/><stop offset="1" stop-color="#db5746"/></linearGradient><clipPath id="R"><path d="M0 1080h1920V0H0z"/></clipPath><clipPath id="S"><path d="M1648.403 458.889c-.987-1.727-1.975-7.157.493-7.403h0c2.468-.247 2.468 2.714 2.468 3.455h0c2.468 1.234 10.365-1.727 20.236-15.793h0c9.87-14.066 21.714-27.637 29.364-19.248h0c9.071 9.94-.483 21.805-10.947 29.642h0l-.74.552h0c-5.162 3.761-10.443 6.515-13.729 7.561h0c-6.505 2.064-14.313 5.429-17.52 6.91h0c-.378.174-.787.253-1.216.253h0c-3.21 0-7.538-4.405-8.409-5.929"/></clipPath><linearGradient id="T" spreadMethod="pad" gradientTransform="matrix(43.314293,-25.88899,-25.88899,-43.314293,1650.5084,458.1517)" y2="0" x2="1" y1="0" x1="0" xlink:href="#BP"><stop offset="0" stop-color="#f19d70"/><stop offset=".005" stop-color="#f19d70"/><stop offset="1" stop-color="#fdb07b"/></linearGradient><clipPath id="U"><path d="M0 1080h1920V0H0z"/></clipPath><clipPath id="V"><path d="M1678.261 430.264c-11.952-2.073-20.658-9.091-21.192-9.525h0c-.01-.01-.02-.02-.029-.02h0s-2.142 3.455-2.794 2.961h0c-.661-.493-.661-2.793-.661-2.793h0s-2.211 1.718-3.129 1.55h0c-.149-.03-.256-.098-.325-.237h0a.97.97 0 0 1-.089-.493h0c.029-1.105 1.164-2.843 1.233-2.951h0c-.149.049-1.619.552-2.704.325h0c-.484-.099-.879-.346-1.076-.829h0a.91.91 0 0 1 .118-.899h0c.731-1.046 3.337-1.569 3.337-1.569h0s-2.133-.987-2.468-1.974h0c-.326-.987.168-1.48 5.103-.157h0c-1.648-5.272 2.635-4.61 2.635-.83h0c10.858 6.583 27.501 2.567 33.561-9.209h0c1.085-2.113 1.796-4.403 2.26-6.456h0c.8-3.543.859-6.376.859-6.376h0s.493-1.224 7.916 1.402h0c1.185.414 2.537.927 4.096 1.559h0c-.443 15.555-6.732 27.638-14.539 33.265h0c-3.121 2.237-6.483 3.452-9.816 3.452h0a13.53 13.53 0 0 1-2.296-.196"/></clipPath><linearGradient id="W" spreadMethod="pad" gradientTransform="matrix(-10.857711,17.767141,17.767141,10.857711,1689.2505,389.65549)" y2="0" x2="1" y1="0" x1="0" xlink:href="#BP"><stop offset="0" stop-color="#f19d70"/><stop offset=".247" stop-color="#f19d70"/><stop offset="1" stop-color="#fdb07b"/></linearGradient><clipPath id="X"><path d="M1677.522 410.03c-1.846.868-3.149-.109-1.896-2.468h0c-12.338 1.885-22.022 2.171-27.855-1.688h0c-3.346-2.192-5.428-5.745-6.031-11.144h0c-1.48-13.345 12.793-29.089 26.711-28.22h0c1.53.089 3.059.395 4.55.908h0c.918.957 1.678 1.866 2.309 2.724h0c4.383 5.943 2.626 9.456 2.626 9.456h0c-1.727.07-3.337.198-4.836.395h0c-20.502 2.596-20.156 15.921-10.958 18.685h0c5.357 1.606 10.267 1.303 14.15.999h0c3.085-.241 5.524-.482 7.023.235h0c.987-.671 3.218-.987 3.83 0h0c.612.988-1.688 2.103-2.585 3.208h0c1.934 2.507-.258 7.284-2.232 5.429h0c-.657 1.316-2.851 2.36-4.056 2.36h0c-.602 0-.958-.261-.75-.879"/></clipPath><radialGradient id="Y" spreadMethod="pad" gradientTransform="matrix(24.816961,0,0,-24.816961,1672.3394,374.00174)" r="1" cy="0" cx="0" fy="0" fx="0" xlink:href="#BP"><stop offset="0" stop-color="#f19d70"/><stop offset=".132" stop-color="#f19d70"/><stop offset="1" stop-color="#fdb07b"/></radialGradient><clipPath id="Z"><path d="M0 1080h1920V0H0z"/></clipPath><clipPath id="a"><path d="M0 1080h1920V0H0z"/></clipPath><clipPath id="b"><path d="M1374.29 459.837h85.8V325.403h-85.8z"/></clipPath><clipPath id="c"><path d="M1434.477 395.737c-3.572-4.971 2.485-15.689.622-28.115h0c-1.864-12.427-9.786-15.689-9.942-17.864h0c-.156-2.174 1.863-4.505 3.728-3.572h0c1.864.931 9.01 8.543 10.096 20.504h0c1.088 11.961-2.33 20.814-1.242 25.474h0c1.087 4.66 10.252 8.544 13.98 5.437h0c-1.087 5.437-6.213 10.408-6.213 10.408h0c-.156-4.04-7.456-7.301-11.029-12.272"/></clipPath><linearGradient id="d" spreadMethod="pad" gradientTransform="matrix(16.341732,11.214908,11.214908,-16.341732,1437.4773,377.27643)" y2="0" x2="1" y1="0" x1="0" xlink:href="#BP"><stop offset="0" stop-color="#f47769"/><stop offset=".124" stop-color="#f47769"/><stop offset="1" stop-color="#571338"/></linearGradient><clipPath id="e"><path d="M0 1080h1920V0H0z"/></clipPath><clipPath id="f"><path d="M0 1080h1920V0H0z"/></clipPath><clipPath id="g"><path d="M1118.62 453.143h98.82V332.301h-98.82z"/></clipPath><clipPath id="h"><path d="M1194.141 445.599c1.514-9.902-8.777-15.999-10.525-26.251h0c-1.747-10.252 12.234-8.038 20.971-14.097h0c8.737-6.058 6.64-17.824-3.729-24.698h0s.397-7.155 3.03-5.009h0c15.727 12.815 13.746 28.076 2.562 33.319h0c-11.183 5.242-18.64 8.388-15.144 13.514h0c3.494 5.126 14.562 12.077 14.329 18.251h0c-.157 4.157-5.998 9.458-9.337 9.457h0c-1.621 0-2.652-1.25-2.157-4.486"/></clipPath><linearGradient id="i" spreadMethod="pad" gradientTransform="matrix(30.524202,26.41144,26.41144,-30.524202,1191.9868,406.16718)" y2="0" x2="1" y1="0" x1="0" xlink:href="#BP"><stop offset="0" stop-color="#f47769"/><stop offset=".097" stop-color="#f47769"/><stop offset=".781" stop-color="#571338"/></linearGradient><clipPath id="j"><path d="M0 1080h1920V0H0z"/></clipPath><clipPath id="k"><path d="M0 1080h1920V0H0z"/></clipPath><clipPath id="l"><path d="M877.632 447.603H978.13V326.556H877.632z"/></clipPath><clipPath id="m"><path d="M891.441 376.297h58.31V322.09h-58.31z"/></clipPath><clipPath id="n"><path d="M958.283 422.447c-1.255-.283-3.209-.015-5.414.253h0c-4.838.589-10.887 1.178-13.431-4.058h0c-3.705-7.613 1.166-14.637 11.386-22.082h0c4.087-2.981 6.475-5.993 7.192-8.914h0c1.1-4.378-1.547-8.527-7.795-11.964h0s-1.166-1.508-1.943-3.047h0c-1.086-2.123-1.451-4.329 2.89-2.808h0c.816.291 1.803.707 2.977 1.275h0c7.01 3.415 11.422 8.699 12.875 14.062h0c1.047 3.784.606 7.608-1.43 10.841h0c-4.926 7.81-20.652 13.307-15.668 18.189h0c2.349 2.303 5.992 1.429 9.338.556h0c3.763-.982 7.15-1.965 7.902 1.569h0c1.421 6.677 6.958 5.967 6.958 5.967h0l-13.114 13.036s1.293-11.969-2.723-12.875"/></clipPath><linearGradient id="o" spreadMethod="pad" gradientTransform="matrix(17.132278,17.391537,17.391537,-17.132278,956.57544,403.90802)" y2="0" x2="1" y1="0" x1="0" xlink:href="#BP"><stop offset="0" stop-color="#f47769"/><stop offset=".124" stop-color="#f47769"/><stop offset="1" stop-color="#571338"/></linearGradient><clipPath id="p"><path d="M950.221 375.682s-1.166-1.508-1.943-3.047h0l2.89-2.808c.816.291 1.803.707 2.977 1.275h0c7.01 3.415 11.422 8.699 12.875 14.062h0l-9.004 2.482h0c1.1-4.378-1.547-8.527-7.795-11.964"/></clipPath><linearGradient id="q" spreadMethod="pad" gradientTransform="matrix(6.8194838,8.4573841,8.4573841,-6.8194838,953.76373,374.34399)" y2="0" x2="1" y1="0" x1="0" xlink:href="#BP"><stop offset="0" stop-color="#db5746"/><stop offset=".995" stop-color="#f47769"/></linearGradient><clipPath id="r"><path d="M0 1080h1920V0H0z"/></clipPath><clipPath id="s"><path d="M927.946 376.19c-1.436-4.171-1.836-16.573-5.197-20.093h0c-4.518-4.733-12.401 4.033-14.018 7.964h0c-3.385 8.226-5.789 4.457-7.429 3.248h0c-4.735-3.49-.997-15.106 6.135-20.88h0c7.132-5.775 21.562-9.547 24.553 5.134h0c2.458 12.073.654 20.094.654 20.094h0s4.58-2.818 4.333.768h0c-.174 2.543-3.921 5.47-6.597 5.471h0c-1.098 0-2.016-.492-2.434-1.706"/></clipPath><linearGradient id="t" spreadMethod="pad" gradientTransform="matrix(-14.179146,10.302754,10.302754,14.179146,920.591,361.57834)" y2="0" x2="1" y1="0" x1="0" xlink:href="#BP"><stop offset="0" stop-color="#fdb07b"/><stop offset=".004" stop-color="#fdb07b"/><stop offset=".78" stop-color="#f19d70"/></linearGradient><clipPath id="u"><path d="M0 1080h1920V0H0z"/></clipPath><clipPath id="v"><path d="M936.11 357.965h29.634v-30.6H936.11z"/></clipPath><clipPath id="w"><path d="M868.8 439.666h62.282v-68.072H868.8z"/></clipPath><clipPath id="x"><path d="M0 1080h1920V0H0z"/></clipPath><clipPath id="y"><path d="M595.932 450.704h102.841V335.447H595.932z"/></clipPath><clipPath id="z"><path d="M618.572 456.207h52.192v-12.558h-52.192z"/></clipPath><clipPath id="AA"><path d="M667.114 421.678c-2.952-6.441-7.455-17.863 8.854-20.97h0c16.31-3.106 22.058 7.767 15.688 13.359h0c-6.368-.156-6.368-3.107-6.368-3.107h0c3.107-1.243-3.417-8.854-11.65-3.417h0c-8.233 5.436 7.766 20.969 1.398 27.494h0c-1.251 1.281-2.185 1.832-2.903 1.832h0c-2.937 0-2.273-9.2-5.019-15.191"/></clipPath><linearGradient id="AB" spreadMethod="pad" gradientTransform="matrix(0.466237,25.177078,25.177078,-0.466237,679.17981,408.5864)" y2="0" x2="1" y1="0" x1="0" xlink:href="#BP"><stop offset="0" stop-color="#f47769"/><stop offset=".288" stop-color="#f47769"/><stop offset="1" stop-color="#3a0a22"/></linearGradient><clipPath id="AC"><path d="M0 1080h1920V0H0z"/></clipPath><clipPath id="AD"><path d="M607.621 391.23h65.487v-51.987h-65.487z"/></clipPath><clipPath id="AE"><path d="M648.474 391.388c-2.796-2.33 4.349-6.525 4.349-6.525h0c6.836-.931 12.738-5.902 8.699-8.697h0c-4.039-2.796-11.961-2.486-13.824-4.971h0c-1.864-2.486-1.399-7.611 1.242-8.077h0c2.64-.467 2.951 4.348 2.951 4.348h0s14.136-3.572 20.66 3.418h0c6.523 6.99-5.281 19.882-12.738 21.28h0c-3.412.64-5.491 1.02-7.01 1.02h0c-1.8 0-2.813-.532-4.329-1.796"/></clipPath><radialGradient id="AF" spreadMethod="pad" gradientTransform="matrix(17.191555,0,0,-17.191555,650.26038,391.15497)" r="1" cy="0" cx="0" fy="0" fx="0" xlink:href="#BP"><stop offset="0" stop-color="#f19d70"/><stop offset=".129" stop-color="#f19d70"/><stop offset="1" stop-color="#fdb07b"/></radialGradient><clipPath id="AG"><path d="M0 1080h1920V0H0z"/></clipPath><clipPath id="AH"><path d="M609.252 349.914h21.669v-16.776h-21.669z"/></clipPath><clipPath id="AI"><path d="M684.355 355.04h9.476v-16.077h-9.476z"/></clipPath><clipPath id="AJ"><path d="M680.395 414.449h12.106V403.27h-12.106z"/></clipPath><clipPath id="AK"><path d="M0 1080h1920V0H0z"/></clipPath><clipPath id="AL"><path d="M1616.11 775.032h110.5V659.523h-110.5z"/></clipPath><clipPath id="AM"><path d="M1687.941 732.143v-.01l-.158-.233h0l-.671-1.146h0c-3.206-5.975-1.361-10.588 2.247-13.02h0c.484-.327.997-.616 1.537-.858h0c2.45-1.119 5.396-1.371 8.071-.587h0s2.795 8.388-1.865 8.155h0c-1.844-.092-3.215.214-4.174.801h0c-.327.187-.606.411-.839.663h0c-.848.894-1.156 2.106-1.044 3.429h0c.047.568.26 1.156.644 1.677h0c.176.261.4.504.66.727h0c1.305 1.091 3.589 1.585 6.851.317h0a16.8 16.8 0 0 0 .876-.381h0c1.09-.504 2.275-1.194 3.551-2.106h0c1.798-1.287 3.281-2.499 4.464-3.729h0c.242-.252.475-.503.69-.764h0c1.482-1.725 2.376-3.514 2.739-5.574h0a6.12 6.12 0 0 0 .131-.95h0c.261-2.572-.234-5.573-1.407-9.395h0c-.028-.102-.056-.215-.093-.326h0c-.102-.317-.205-.625-.326-.904h0c-1.575-3.999-4.352-4.381-7.531-3.971h0c-.447.056-.894.131-1.361.215h0-.01c-3.616.643-7.586 1.762-10.809-.466h0a12.85 12.85 0 0 1-2.07-1.799h0a14.17 14.17 0 0 1-.895-1.081h0c-2.582-3.411-3.326-7.372-3.326-7.372h0l5.125-2.098s1.631 4.521 5.834 6.768h0c.261.139.541.27.83.39h0c2.04.877 4.613 1.194 7.81.327h0a12.59 12.59 0 0 0 .904-.261h0c.037-.009.074-.028.111-.037h0c7.718-2.47 13.496.615 14.288 7.884h0c.046.41.075.849.084 1.286h0c.084 3.029-.624 6.692-2.311 10.895h0l-.289.709h0c-.056.121-.103.252-.158.373h0c-.876 2.032-1.893 3.904-3.02 5.611h0c-.225.354-.467.698-.709 1.034h0c-2.861 4.055-6.309 7.027-9.776 8.715h0c-.363.186-.728.344-1.091.493h0c-1.792.737-3.574 1.122-5.267 1.122h0c-3.27-.001-6.208-1.435-8.247-4.523"/></clipPath><linearGradient id="AN" spreadMethod="pad" gradientTransform="matrix(-4.1933951,-8.6197557,-8.6197557,4.1933951,1695.1293,701.74963)" y2="0" x2="1" y1="0" x1="0" xlink:href="#BP"><stop offset="0" stop-color="#f07160"/><stop offset=".005" stop-color="#f07160"/><stop offset="1" stop-color="#db5746"/></linearGradient><clipPath id="AO"><path d="M0 1080h1920V0H0z"/></clipPath><clipPath id="AP"><path d="M1668.19 780.675h63.65v-94.831h-63.65z"/></clipPath><clipPath id="AQ"><path d="M1611.73 741.899h34.43v-85.034h-34.43z"/></clipPath><clipPath id="AR"><path d="M1614.92 719.053h16.22v-42.502h-16.22z"/></clipPath><clipPath id="AS"><path d="M1696.4 748.754h31.46v-39.61h-31.46z"/></clipPath><clipPath id="AT"><path d="M1709.554 739.169l-.325-.876h0c-2.843-7.371-7.709-12.871-12.127-13.849h0c-8.387-1.864-3.961-10.718 1.865-8.155h0c5.825 2.563 7.14 11.827 12.349 16.077h0c.885.717 1.78 1.276 2.666 1.687h0c.289.131.567.252.856.354h0c7.736 2.833 15.118-4.371 15.118-4.371h0s2.33 5.592-5.36 19.106h0c-6.402 11.258-14.445 11.65-14.445 11.65h0c2.423-7.39 1.697-15.155-.597-21.623"/></clipPath><linearGradient id="AU" spreadMethod="pad" gradientTransform="matrix(25.077829,14.586096,14.586096,-25.077829,1695.8427,731.33221)" y2="0" x2="1" y1="0" x1="0" xlink:href="#BP"><stop offset="0" stop-color="#f07160"/><stop offset=".238" stop-color="#f07160"/><stop offset=".892" stop-color="#571338"/></linearGradient><clipPath id="AV"><path d="M0 1080h1920V0H0z"/></clipPath><clipPath id="AW"><path d="M1631.03 760.268h70.25V657.413h-70.25z"/></clipPath><clipPath id="AX"><path d="M1675.551 706.848c-.015-2.965-1.512-9.046-5.364-10.709h0c-3.853-1.663-6.938.562-9.763 3.344h0c-2.823 2.782-6.945-.391-3.541-4.701h0c6.082-7.742 11.435-12.488 17.522-6.786h0c6.087 5.702 4.216 13.661 5.23 15.141h0c1.013 1.479 5.278 1.173 4.778 5.039h0c-.191 1.472-1.52 2.061-3.094 2.061h0c-2.557 0-5.759-1.553-5.768-3.389"/></clipPath><radialGradient id="AY" spreadMethod="pad" gradientTransform="matrix(13.525006,1.3799639,1.3799639,-13.525006,1656.3981,699.53088)" r="1" cy="0" cx="0" fy="0" fx="0" xlink:href="#BP"><stop offset="0" stop-color="#f19d70"/><stop offset=".129" stop-color="#f19d70"/><stop offset="1" stop-color="#fdb07b"/></radialGradient><clipPath id="AZ"><path d="M0 1080h1920V0H0z"/></clipPath><clipPath id="Aa"><path d="M1707.01 711.513h9.96v-11.026h-9.96z"/></clipPath><clipPath id="Ab"><path d="M1716.209 711.513c.699-6.758-2.33-10.369-9.203-10.719 8.504-1.281 11.533 1.282 9.203 10.719"/></clipPath><linearGradient id="Ac" spreadMethod="pad" y2="706" x2="1716.967" y1="706" x1="1707.005" xlink:href="#BP"><stop offset="0" stop-color="#f07160"/><stop offset=".005" stop-color="#f07160"/><stop offset="1" stop-color="#db5746"/></linearGradient><clipPath id="Ad"><path d="M1687.54 726.774h11.31v-7.712h-11.31z"/></clipPath><clipPath id="Ae"><path d="M1687.55 726.774c-.233-7.107 6.64-9.902 11.301-5.825-7.34-.699-10.718 3.961-11.301 5.825"/></clipPath><linearGradient id="Af" spreadMethod="pad" y2="722.918" x2="1698.85" y1="722.918" x1="1687.544" xlink:href="#BP"><stop offset="0" stop-color="#f07160"/><stop offset=".005" stop-color="#f07160"/><stop offset="1" stop-color="#db5746"/></linearGradient><clipPath id="Ag"><path d="M0 1080h1920V0H0z"/></clipPath><clipPath id="Ah"><path d="M1388.83 770.749h84.66v-97.025h-84.66z"/></clipPath><clipPath id="Ai"><path d="M1399 759.099h64.31v-73.697H1399z"/></clipPath><clipPath id="Aj"><path d="M1421.81 723.382h30.29v-27.74h-30.29z"/></clipPath><clipPath id="Ak"><path d="M1458.199 740.299c-3.961-4.194-8.776-9.475-9.475-20.426h0c-.7-10.951-3.961-12.582-11.068-13.513h0c-3.236-.425-1.981-4.077 1.864-2.796h0c3.845 1.281 10.834-2.331 13.631 11.184h0c2.795 13.514 26.174 33.94 31.766 14.989h0c-.933 16.776-16.232 35.416-19.262 37.28h0c3.262-11.184-3.495-22.523-7.456-26.718"/></clipPath><linearGradient id="Al" spreadMethod="pad" gradientTransform="matrix(-34.173306,-17.708008,-17.708008,34.173306,1464.95,740.2981)" y2="0" x2="1" y1="0" x1="0" xlink:href="#BP"><stop offset="0" stop-color="#f47769"/><stop offset=".107" stop-color="#f47769"/><stop offset="1" stop-color="#fdb07b"/></linearGradient><clipPath id="Am"><path d="M0 1080h1920V0H0z"/></clipPath><clipPath id="An"><path d="M1389.02 770.749h74.5V699h-74.5z"/></clipPath><clipPath id="Ao"><path d="M1400.93 768.126h53.87v-30.81h-53.87z"/></clipPath><clipPath id="Ap"><path d="M0 1080h1920V0H0z"/></clipPath><clipPath id="Aq"><path d="M1184.41 717.311c0-.621 6.835-8.7 6.835-8.7h0l13.824 15.845s-6.989 8.232-7.611 8.388h0s-13.048-14.912-13.048-15.533"/></clipPath><linearGradient id="Ar" spreadMethod="pad" gradientTransform="matrix(-12.116013,-12.582002,-12.582002,12.116013,1202.7094,729.40698)" y2="0" x2="1" y1="0" x1="0" xlink:href="#BP"><stop offset="0" stop-color="#f47769"/><stop offset=".107" stop-color="#f47769"/><stop offset="1" stop-color="#fdb07b"/></linearGradient><clipPath id="As"><path d="M0 1080h1920V0H0z"/></clipPath><clipPath id="At"><path d="M1150.71 766.759h66.97v-79.628h-66.97z"/></clipPath><clipPath id="Au"><path d="M1175.09 727.852h17.77v-21.893h-17.77z"/></clipPath><clipPath id="Av"><path d="M1142.26 776.008h61.59v-95.8h-61.59z"/></clipPath><clipPath id="Aw"><path d="M1193.21 733.682h33.28V677.44h-33.28z"/></clipPath><clipPath id="Ax"><path d="M1142.26 776.004h69.79v-98.781h-69.79z"/></clipPath><clipPath id="Ay"><path d="M1149.2 771.71h36.42v-32.79h-36.42z"/></clipPath><clipPath id="Az"><path d="M0 1080h1920V0H0z"/></clipPath><clipPath id="BA"><path d="M929.644 725.233l5.281-9.942 20.194 11.495-8.699 22.368z"/></clipPath><linearGradient id="BB" spreadMethod="pad" gradientTransform="matrix(-13.669309,-7.4559989,-7.4559989,13.669309,947.26257,735.81708)" y2="0" x2="1" y1="0" x1="0" xlink:href="#BP"><stop offset="0" stop-color="#f47769"/><stop offset=".107" stop-color="#f47769"/><stop offset="1" stop-color="#fdb07b"/></linearGradient><clipPath id="BC"><path d="M0 1080h1920V0H0z"/></clipPath><clipPath id="BD"><path d="M899.886 758.08h59.737v-70.766h-59.737z"/></clipPath><clipPath id="BE"><path d="M919.653 777.992h23.38v-6.077h-23.38z"/></clipPath><clipPath id="BF"><path d="M930.157 777.298h7.06v-2.343h-7.06z"/></clipPath><clipPath id="BG"><path d="M912.994 754.011H949.6v-51.809h-36.606z"/></clipPath><clipPath id="BH"><path d="M921.205 733.029h20.549v-23.531h-20.549z"/></clipPath><clipPath id="BI"><path d="M893.541 765.078h49.847v-84.755h-49.847z"/></clipPath><clipPath id="BJ"><path d="M901.76 762.032h32.544V729.74H901.76z"/></clipPath><clipPath id="BK"><path d="M0 1080h1920V0H0z"/></clipPath><path id="BL" d="M1778.152 391.854c0-55.419-44.927-100.346-100.346-100.346s-100.344 44.927-100.344 100.346 44.925 100.345 100.344 100.345 100.346-44.926 100.346-100.345"/><path id="BM" d="M1026.417 391.854c0-55.419-44.927-100.345-100.346-100.345s-100.345 44.926-100.345 100.345 44.926 100.345 100.345 100.345 100.346-44.926 100.346-100.345"/><path id="BN" d="M748.198 391.854c0-55.419-44.926-100.345-100.345-100.345s-100.345 44.926-100.345 100.345 44.926 100.345 100.345 100.345 100.345-44.926 100.345-100.345"/><path id="BO" d="M349.377 726.265c0-3.185 1.809-5.767 4.041-5.767s4.04 2.582 4.04 5.767-1.809 5.768-4.04 5.768-4.041-2.582-4.041-5.768"/><linearGradient id="BP" gradientUnits="userSpaceOnUse"/></defs><g transform="matrix(1.333333 0 0 -1.333333 -730.01038 656.26532)"><g clip-path="url(#A)"><path d="M1767.19 148.181c-12.016.076-24.207-.63-36.288-2.097-3.641-.443-6.529-3.12-7.19-6.677-4.365-23.598-5.245-47.639-2.181-71.469.46-3.591 3.313-6.445 7.1-7.086 12.56-2.124 25.358-3.242 37.984-3.322s25.436.875 38.021 2.839c3.796.593 6.686 3.41 7.192 6.995 3.365 23.789 2.791 47.839-1.275 71.491-.615 3.566-3.469 6.279-7.103 6.768-12.062 1.62-24.243 2.481-36.26 2.558m-.64-100.732c-13.23.083-26.637 1.255-39.789 3.482-8.498 1.436-14.861 7.841-15.838 15.857-3.055 24.85-1.991 49.895 2.695 74.459 1.52 7.928 7.963 13.862 16.033 14.843 12.518 1.52 25.15 2.251 37.603 2.173s25.076-.972 37.574-2.65c8.057-1.084 14.424-7.099 15.842-15.046 4.374-24.621 5.121-49.678 1.749-74.487-1.078-8.003-7.523-14.328-16.038-15.655-13.179-2.06-26.6-3.061-39.831-2.976" fill="#aa3a21"/><path d="M1766.793 151.221a238.7 238.7 0 0 1-35.491-2.45 8.09 8.09 0 0 1-6.87-6.784 237.79 237.79 0 0 1-.452-70.963c.514-3.552 3.24-6.314 6.785-6.872 11.759-1.849 23.689-2.826 35.457-2.9a238.72 238.72 0 0 1 35.492 2.449c3.551.513 6.311 3.24 6.87 6.785a237.79 237.79 0 0 1 .45 70.963 8.09 8.09 0 0 1-6.783 6.872c-11.76 1.849-23.689 2.825-35.458 2.9m-.635-99.975c-12.265.078-24.696 1.095-36.948 3.022-7.907 1.244-13.987 7.403-15.13 15.327-3.543 24.557-3.385 49.436.47 73.946a18.04 18.04 0 0 0 15.324 15.133 248.62 248.62 0 0 0 36.983 2.552c12.266-.077 24.697-1.094 36.948-3.022 7.907-1.243 13.988-7.402 15.131-15.326a247.8 247.8 0 0 0-.47-73.946c-1.243-7.909-7.402-13.99-15.324-15.133-12.275-1.772-24.718-2.631-36.984-2.553" class="R"/><path d="M1802.428 58.75a241.54 241.54 0 0 0-72.44.46c-5.706.897-10.133 5.382-10.957 11.1a241.7 241.7 0 0 0 .459 72.454 13.11 13.11 0 0 0 11.098 10.959 241.54 241.54 0 0 0 72.44-.46 13.11 13.11 0 0 0 10.958-11.1 241.7 241.7 0 0 0-.46-72.454 13.11 13.11 0 0 0-11.098-10.959" class="U"/><path d="M1800.114 68.395c-21.75-3.002-43.48-2.864-65.19.415-5.134.775-9.12 4.644-9.864 9.574a199.86 199.86 0 0 0 .398 62.484c.805 4.921 4.84 8.738 9.983 9.448 21.75 3.003 43.481 2.865 65.191-.414 5.134-.775 9.12-4.644 9.863-9.575a199.82 199.82 0 0 0-.397-62.483c-.806-4.921-4.84-8.739-9.984-9.449" fill="#d82d25"/></g><g clip-path="url(#B)"><path d="M1737.239 147.879c-4.858-.688-8.668-4.382-9.431-9.145h0c-2.973-18.58-3.305-37.178-1.008-55.792h0c.286-2.318 1.927-4.228 4.144-4.964h0c12.472-4.139 28.121-3.737 43.527 2.186h0c13.536 5.203 24.477 13.743 31.507 23.557h0c2.841 3.966 4.296 8.772 4.097 13.648h0a199.56 199.56 0 0 1-1.959 20.855h0c-.702 4.772-4.465 8.515-9.313 9.264h0c-10.69 1.652-21.389 2.479-32.089 2.479h0c-9.822 0-19.645-.696-29.475-2.088" fill="url(#C)"/></g><g clip-path="url(#D)"><path d="M1781.804 88.553c-8.753-.919-17.506-.919-26.259 0-3.491.367-6.231 3.028-6.582 6.371a130.48 130.48 0 0 0 0 27.277c.351 3.343 3.091 6.005 6.582 6.372 8.753.919 17.506.919 26.259 0 3.491-.367 6.231-3.029 6.582-6.372a130.48 130.48 0 0 0 0-27.277c-.351-3.343-3.091-6.004-6.582-6.371" class="R"/><path d="M1768.674 131.934a128.92 128.92 0 0 1-13.407-.704c-4.712-.495-8.481-4.174-8.96-8.749-.968-9.235-.968-18.6 0-27.835.479-4.575 4.248-8.254 8.96-8.749a128.92 128.92 0 0 1 13.407-.704c4.449 0 8.96.237 13.408.704 4.712.495 8.48 4.174 8.96 8.749.968 9.235.968 18.6 0 27.835-.48 4.575-4.248 8.254-8.96 8.749-4.448.467-8.959.704-13.408.704m0-2.671a125.8 125.8 0 0 0 13.13-.689c3.491-.367 6.231-3.029 6.582-6.372a130.48 130.48 0 0 0 0-27.277c-.351-3.343-3.091-6.005-6.582-6.371a125.53 125.53 0 0 0-13.13-.69c-4.376 0-8.752.23-13.129.69-3.491.366-6.231 3.028-6.582 6.371a130.48 130.48 0 0 0 0 27.277c.351 3.343 3.091 6.005 6.582 6.372 4.377.459 8.753.689 13.129.689" class="U"/></g><g clip-path="url(#E)"><path d="M1628.496 148.181c-12.016.076-24.207-.63-36.289-2.097-3.64-.443-6.528-3.12-7.189-6.677-4.366-23.598-5.245-47.639-2.182-71.469.461-3.591 3.314-6.445 7.101-7.086 12.56-2.124 25.358-3.242 37.983-3.322s25.436.875 38.022 2.839c3.795.593 6.685 3.41 7.191 6.995 3.366 23.789 2.792 47.839-1.274 71.491-.615 3.566-3.469 6.279-7.103 6.768-12.063 1.62-24.244 2.481-36.26 2.558m-.64-100.732c-13.23.083-26.637 1.255-39.79 3.482-8.497 1.436-14.861 7.841-15.838 15.857-3.054 24.85-1.99 49.895 2.696 74.459 1.519 7.928 7.962 13.862 16.033 14.843 12.518 1.52 25.149 2.251 37.603 2.173s25.076-.972 37.573-2.65c8.057-1.084 14.425-7.099 15.843-15.046 4.374-24.621 5.12-49.678 1.749-74.487-1.079-8.003-7.523-14.328-16.039-15.655-13.178-2.06-26.599-3.061-39.83-2.976" fill="#aa3a21"/><path d="M1628.099 151.221a238.69 238.69 0 0 1-35.491-2.45 8.09 8.09 0 0 1-6.871-6.784 237.82 237.82 0 0 1-.451-70.963 8.09 8.09 0 0 1 6.784-6.872c11.76-1.849 23.689-2.826 35.458-2.9s23.709.749 35.491 2.449a8.09 8.09 0 0 1 6.87 6.785 237.79 237.79 0 0 1 .451 70.963 8.09 8.09 0 0 1-6.783 6.872c-11.761 1.849-23.689 2.825-35.458 2.9m-.635-99.975a248.76 248.76 0 0 0-36.948 3.022c-7.907 1.244-13.987 7.403-15.131 15.327-3.543 24.557-3.385 49.436.47 73.946 1.244 7.909 7.401 13.99 15.324 15.133a248.63 248.63 0 0 0 36.983 2.552c12.266-.077 24.698-1.094 36.949-3.022a18.04 18.04 0 0 0 15.13-15.326c3.544-24.557 3.385-49.436-.469-73.946-1.244-7.909-7.402-13.99-15.324-15.133-12.275-1.772-24.718-2.631-36.984-2.553" class="R"/><path d="M1663.732 58.75c-24.17-3.488-48.316-3.335-72.439.46-5.706.897-10.133 5.382-10.958 11.1-3.488 24.174-3.334 48.326.46 72.454a13.11 13.11 0 0 0 11.098 10.959 241.54 241.54 0 0 0 72.44-.46 13.11 13.11 0 0 0 10.957-11.1 241.7 241.7 0 0 0-.46-72.454 13.11 13.11 0 0 0-11.098-10.959" class="U"/><path d="M1661.419 68.395c-21.749-3.002-43.479-2.864-65.189.415-5.135.775-9.121 4.644-9.864 9.574a199.86 199.86 0 0 0 .397 62.484c.806 4.921 4.841 8.738 9.984 9.448 21.75 3.003 43.48 2.865 65.191-.414 5.133-.775 9.119-4.644 9.863-9.575a199.82 199.82 0 0 0-.398-62.483c-.805-4.921-4.839-8.739-9.984-9.449" fill="#d82d25"/></g><g clip-path="url(#F)"><path d="M1598.544 147.879c-4.857-.688-8.668-4.382-9.43-9.145h0c-2.974-18.58-3.305-37.178-1.008-55.792h0c.286-2.318 1.928-4.228 4.144-4.964h0c12.472-4.139 28.121-3.737 43.527 2.186h0c13.534 5.203 24.477 13.743 31.506 23.557h0c2.842 3.966 4.297 8.772 4.097 13.648h0a199.56 199.56 0 0 1-1.959 20.855h0c-.701 4.772-4.464 8.515-9.312 9.264h0c-10.691 1.652-21.389 2.479-32.09 2.479h0c-9.821 0-19.645-.696-29.475-2.088" fill="url(#G)"/></g><g clip-path="url(#H)"><path d="M1642.74 117.87v12.66c0 .548-.445.992-.993.992h-4.597c-.548 0-.993-.444-.993-.992v-4.128c0-.883-1.067-1.326-1.693-.703l-7.48 7.448a.99.99 0 0 1-1.4 0l-27.092-26.979c-.188-.186-.292-.439-.292-.703v-2.021a.99.99 0 0 1 .992-.993h4.707c.548 0 .992-.445.992-.993V85.233c0-.549.446-.993.994-.993h15.53a.99.99 0 0 1 .993.993v8.985a.99.99 0 0 0 .992.992h5.694c.548 0 .993-.444.993-.992v-8.985c0-.549.445-.993.993-.993h15.603c.549 0 .994.444.994.993v16.225c0 .548.444.993.992.993h4.707a.99.99 0 0 1 .992.993v2.021a.99.99 0 0 1-.292.703l-11.044 10.998a.99.99 0 0 0-.292.704" class="R"/><path d="M1642.74 117.87v12.66c0 .548-.445.992-.993.992h-4.597c-.548 0-.993-.444-.993-.992v-4.128c0-.883-1.067-1.326-1.693-.703l-7.48 7.448a.99.99 0 0 1-1.4 0l-27.092-26.979c-.188-.186-.292-.439-.292-.703v-2.021a.99.99 0 0 1 .992-.993h4.707c.548 0 .992-.445.992-.993V85.233c0-.549.446-.993.994-.993h15.53a.99.99 0 0 1 .993.993v8.985a.99.99 0 0 0 .992.992h5.694c.548 0 .993-.444.993-.992v-8.985c0-.549.445-.993.993-.993h15.603c.549 0 .994.444.994.993v16.225c0 .548.444.993.992.993h4.707a.99.99 0 0 1 .992.993v2.021a.99.99 0 0 1-.292.703l-11.044 10.998a.99.99 0 0 0-.292.704z" fill="none" stroke="#b11d3d" stroke-width="3" stroke-miterlimit="10"/></g><text transform="matrix(1 0 0 -1 1619.3853 242.3184)" class="E F M N"><tspan x="0 27.768 52.026 75.66 88.92 116.688" y="0">kujeks</tspan></text><text transform="matrix(1 0 0 -1 1640.1016 208.5078)" class="E F O P"><tspan x="0 18.562 26.709 45.36 64.161" y="0">udih </tspan></text><g clip-path="url(#I)"><use xlink:href="#BL" class="Q"/><path d="M1611.306 429.034c-8.702-78.192 51.222-140.457 106.652-116.22 23.686 10.356 25.494 36.207 20.871 56.38s-15.955 34.571-19.065 43.815c-6.32 18.778-.932 52.44-39.823 63.928-25.177 7.436-63.699-3.553-68.635-47.903" class="G"/><path d="M1696.148 311.308c-17.524-.629-35.208 7.352-49.791 22.473-22.737 23.578-33.864 59.651-29.764 96.494 3.573 32.101 25.845 44.296 45.498 45.004 5.305.192 10.617-.449 15.362-1.85 26.395-7.797 29.38-25.924 32.538-45.116.995-6.04 1.934-11.744 3.68-16.935 1.409-4.181 3.854-8.672 6.684-13.873 4.626-8.498 10.382-19.073 13.278-31.714 2.65-11.562 6.307-39.547-16.887-49.69-6.701-2.929-13.629-4.542-20.592-4.793" class="I"/><path d="M1696.06 314.251c-16.631-.597-33.488 7.055-47.465 21.547-22.148 22.968-32.979 58.178-28.972 94.187 3.364 30.217 24.188 41.69 42.556 42.352 4.969.179 9.935-.417 14.36-1.724 24.597-7.265 27.305-23.726 30.442-42.785 1.014-6.155 1.971-11.969 3.792-17.381 1.486-4.415 3.984-9.003 6.875-14.317 4.549-8.355 10.2-18.737 13.009-30.998 2.488-10.856 5.993-37.105-15.148-46.349-6.337-2.77-12.878-4.295-19.443-4.532z" class="C"/></g><g clip-path="url(#J)"><path d="M1697.51 420.394c.987-.494 6.662-3.949 8.143-8.883h0c1.48-4.936-4.689-7.897-4.689-7.897h0l2.221-4.689c4.442 2.468 6.17 8.39 4.195 14.806h0c-1.974 6.416-6.909 9.377-6.909 9.377h0s-3.949-2.221-2.961-2.714" fill="url(#K)"/></g><g clip-path="url(#L)" class="C"><g clip-path="url(#M)" opacity=".6"><path d="M1695.796 323.079c-13.952-.501-28.331 6.165-40.487 18.771-20.383 21.136-30.325 53.758-26.595 87.264 3.439 30.911 26.686 34.142 33.728 34.396 3.963.142 7.891-.323 11.357-1.347 18.379-5.429 20.805-15.449 24.152-35.793 1.074-6.515 2.084-12.656 4.125-18.719 1.723-5.12 4.385-10.01 7.466-15.672 4.3-7.9 9.642-17.713 12.187-28.825 2.004-8.742 5.046-29.779-9.931-36.328-5.244-2.293-10.626-3.554-15.996-3.747z"/></g></g><g clip-path="url(#N)"><path d="M1653.832 351.3c.247-14.56.247-25.911 17.026-23.443h0c16.781 2.466 14.807 7.896 14.807 7.896h0l-6.663 1.974s-10.612-7.897-18.014-3.948h0c-7.403 3.948-4.442 15.546-2.96 21.715h0c1.48 6.169-7.157 16.04-5.43 19.495h0c1.727 3.455-2.961 3.701-2.961 3.701h0c-8.637-1.727 3.948-12.832 4.195-27.39" fill="url(#O)"/></g><g clip-path="url(#P)"><path d="M1627.428 392.016c1.48-6.416 6.416-6.17 10.611-14.56h0c4.195-8.389-1.727-15.546 8.389-18.014h0c10.118-2.468 15.547 9.377 15.547 9.377h0l-4.195 2.715c-3.207-8.637-13.325-6.663-14.312 2.961h0c-.988 9.624-8.144 11.844-11.352 16.78h0c-3.208 4.936 5.676 16.04 5.676 16.04h0l-4.196 3.455s-8.901-6.914-6.168-18.754" fill="url(#Q)"/></g><g clip-path="url(#R)"><path d="M1702.939 385.106l-24.184-16.533-3.444 1.569c-1.678.869-3.277 1.846-4.787 2.912-12.575 8.844-19.515 23.788-22.752 32.82-1.639 4.56-2.329 7.61-2.329 7.61l2.171 3.87.958 1.727 1.471 2.626.414.73 15.713 28.062 19.001-6.169 2.044-6.821 3.159-10.502 1.234-4.126 7.333-24.43 1.876-6.267z" class="J"/><g class="D"><path d="M1647.909 453.707c3.702 10.858 13.87 16.056 23.69 13.326 13.901-3.867 26.651-21.963 29.612-28.379s-1.728-12.831-1.728-12.831l-35.287 28.625c-1.234 1.233-10.117-8.144-10.117-8.144z"/><path d="M1648.156 402.873c-7.649-4.441-21.222 2.961-22.702 30.846-.812 15.28 7.896 34.054 31.339 16.286-4.689-21.715-8.637-47.132-8.637-47.132"/></g></g><g clip-path="url(#S)"><path d="M1648.403 458.889c-.987-1.727-1.975-7.157.493-7.403h0c2.468-.247 2.468 2.714 2.468 3.455h0c2.468 1.234 10.365-1.727 20.236-15.793h0c9.87-14.066 21.714-27.637 29.364-19.248h0c9.071 9.94-.483 21.805-10.947 29.642h0l-.74.552h0c-5.162 3.761-10.443 6.515-13.729 7.561h0c-6.505 2.064-14.313 5.429-17.52 6.91h0c-.378.174-.787.253-1.216.253h0c-3.21 0-7.538-4.405-8.409-5.929" fill="url(#T)"/></g><g clip-path="url(#U)"><path d="M1673.326 447.459c-1.904-.474-.819 2.724-.75 2.952-.178-.178-2.103-1.994-4.925.828 0-1.46-.523-4.372-1.431-8.073l-2.024-7.443a197.41 197.41 0 0 0-3.78-11.48c-1.353-3.711-2.804-7.324-4.284-10.502h-.01c-2.715-5.814-5.527-10.147-7.966-10.868-1.204-.365-2.309-.572-3.307-.641-12.407-.919-8.843 19.218-4.421 29.345 2.833 6.505 8.271 13.76 13.552 19.287 5.132 5.38 10.127 9.131 12.437 9.012 4.688-.247 7.896-3.533 8.884-6.248s0-5.675-1.975-6.169" class="B"/><path d="M1660.416 424.243c-1.353-3.711-2.804-7.324-4.284-10.502h-.01c-.701-.326-1.382-.682-2.043-1.086 0-3.781-4.284-4.442-2.636.829-4.935-1.323-5.428-.829-5.103.158.336.987 2.468 1.974 2.468 1.974s-2.606.523-3.336 1.569a.91.91 0 0 0-.119.899c.198.483.592.73 1.076.829 1.086.227 2.556-.276 2.705-.326-.07.109-1.204 1.846-1.235 2.952-.009.187.021.355.089.493a.43.43 0 0 0 .326.237c.918.168 3.129-1.55 3.129-1.55s0 2.3.661 2.794c.652.493 2.794-2.961 2.794-2.961.01 0 .02.009.03.019.246.198 2.24 1.806 5.488 3.672" class="J"/></g><g clip-path="url(#V)"><path d="M1678.261 430.264c-11.952-2.073-20.658-9.091-21.192-9.525h0c-.01-.01-.02-.02-.029-.02h0s-2.142 3.455-2.794 2.961h0c-.661-.493-.661-2.793-.661-2.793h0s-2.211 1.718-3.129 1.55h0c-.149-.03-.256-.098-.325-.237h0a.97.97 0 0 1-.089-.493h0c.029-1.105 1.164-2.843 1.233-2.951h0c-.149.049-1.619.552-2.704.325h0c-.484-.099-.879-.346-1.076-.829h0a.91.91 0 0 1 .118-.899h0c.731-1.046 3.337-1.569 3.337-1.569h0s-2.133-.987-2.468-1.974h0c-.326-.987.168-1.48 5.103-.157h0c-1.648-5.272 2.635-4.61 2.635-.83h0c10.858 6.583 27.501 2.567 33.561-9.209h0c1.085-2.113 1.796-4.403 2.26-6.456h0c.8-3.543.859-6.376.859-6.376h0s.493-1.224 7.916 1.402h0c1.185.414 2.537.927 4.096 1.559h0c-.443 15.555-6.732 27.638-14.539 33.265h0c-3.121 2.237-6.483 3.452-9.816 3.452h0a13.53 13.53 0 0 1-2.296-.196" fill="url(#W)"/></g><g clip-path="url(#X)"><path d="M1677.522 410.03c-1.846.868-3.149-.109-1.896-2.468h0c-12.338 1.885-22.022 2.171-27.855-1.688h0c-3.346-2.192-5.428-5.745-6.031-11.144h0c-1.48-13.345 12.793-29.089 26.711-28.22h0c1.53.089 3.059.395 4.55.908h0c.918.957 1.678 1.866 2.309 2.724h0c4.383 5.943 2.626 9.456 2.626 9.456h0c-1.727.07-3.337.198-4.836.395h0c-20.502 2.596-20.156 15.921-10.958 18.685h0c5.357 1.606 10.267 1.303 14.15.999h0c3.085-.241 5.524-.482 7.023.235h0c.987-.671 3.218-.987 3.83 0h0c.612.988-1.688 2.103-2.585 3.208h0c1.934 2.507-.258 7.284-2.232 5.429h0c-.657 1.316-2.851 2.36-4.056 2.36h0c-.602 0-.958-.261-.75-.879" fill="url(#Y)"/></g><g clip-path="url(#Z)"><path d="M1700.816 392.184l2.122-7.078-24.184-16.533-3.444 1.569c-.632-.858-1.391-1.766-2.309-2.724a17.04 17.04 0 0 0-4.551-.908l2.073 6.545 2.576 6.939c1.964 4.777 4.988 8.12 7.466 10.459 2.754 2.606 6.926 5.62 11.476 6.706 2.517.602 4.955 1.006 6.899 1.293l.076.01c2.295.32 3.824 2.52 3.308 4.778-1.417 6.196-4.657 17.129-10.243 19.454-6.911 6.913-21.312 4.797-35.012-1.954.533.434 9.239 7.452 21.192 9.525 4.067.701 8.272-.503 12.112-3.257 7.807-5.627 14.095-17.709 14.539-33.264-1.56-.632-2.911-1.145-4.096-1.56" class="J"/><path d="M1730.329 348.338c-.079-2.527-.315-4.916-.7-7.176-2.705-16.03-12.714-25.358-26.691-25.723-15.793-.414-28.951 12.497-31.912 30.599-13.167-6.584-14.48 12.171-1.322 12.832 0 6.682 4.373 20.323 13.572 29.059 1.204 1.155 2.497 2.221 3.869 3.179 11.845 8.232 27.638 3.622 33.235-1.639 5.587-5.271 10.611-20.728 9.949-41.131" class="B"/><g class="D"><path d="M1702.939 352.615c1.315-2.303 8.036.803 6.909 3.619-.658 1.645-8.225-1.316-6.909-3.619m17.767 10.529c.798-3.192 4.606 1.645 3.948 2.961s-4.606-.329-3.948-2.961m-29.941-5.265c3.619 6.251 12.503 7.239 12.503 7.239-8.226 4.606-12.174-1.645-12.503-7.239m34.215 16.047c-2.765 3.29-8.583 4.92-10.477-3.925 0 0 6.211 5.609 10.477 3.925m-20.068 2.379c5.594 1.974 4.936-5.593 4.277-7.238 4.607 7.238-2.302 13.819-4.277 7.238m1.317 8.554c-.987 1.316-5.923-2.961-5.923-2.961 1.646-2.303 6.91 1.645 5.923 2.961"/></g><path d="M1729.629 341.162c-2.705-16.03-12.714-25.358-26.69-25.723-15.793-.415-28.952 12.496-31.913 30.599-13.167-6.584-14.48 12.17-1.322 12.832 0 6.682 4.373 20.323 13.572 29.059-10.255-13.148-13.966-45.76 4.363-59.086 15.961-11.608 36.107-4.234 41.99 12.319" class="J"/><path d="M1668.145 354.754l.74-4.442s-4.442-4.688-5.181-.246 4.441 4.688 4.441 4.688" class="D"/><path d="M1703.281 308.381c4.66-.174 5.762-4.601 9.056-4.135s1.868 7.062 1.868 7.062 1.893-4.965 5.853-3.8.481 6.426 2.17 7.474-14.287-.136-18.947-6.601" class="G"/><path d="M1709.456 314.614c3.378.35 4.749-3.306 4.749-3.306s.218 3.275 1.774 5.986c-3.145.233-6.523-2.68-6.523-2.68" class="I"/></g><text transform="matrix(1 0 0 -1 1365.4824 242.3184)" class="E F M N"><tspan x="0 24.063 47.697 71.331 84.591 112.359" y="0">wgjeks</tspan></text><text transform="matrix(1 0 0 -1 1384.0337 208.5078)" class="E F O P"><tspan x="0 18.562 26.709 45.36 64.161" y="0">udih </tspan></text><g clip-path="url(#a)"><path d="M1522.085 391.854c0-55.419-44.927-100.346-100.346-100.346s-100.344 44.927-100.344 100.346 44.925 100.345 100.344 100.345 100.346-44.926 100.346-100.345" class="Q"/><path d="M1356.033 430.998c-10.718-78.288 45.663-143.05 100.19-120.694 23.3 9.553 25.805 35.474 21.902 55.92s-14.489 35.331-17.241 44.736c-5.593 19.106.616 52.749-36.815 65.706-24.231 8.388-61.957-1.264-68.036-45.668" class="G"/><path d="M1434.025 314.219c-16.085.002-32.079 8.182-45.035 23.034-20.201 23.157-29.414 57.777-24.647 92.607 4.156 30.348 24.91 41.161 42.949 41.161 4.869 0 9.72-.789 14.033-2.282 23.987-8.303 26.227-25.611 28.597-43.935.747-5.767 1.452-11.214 2.911-16.201 1.175-4.016 3.295-8.363 5.748-13.396 4.007-8.224 8.996-18.459 11.304-30.556 2.113-11.065 4.7-37.753-16.843-46.586-6.224-2.552-12.621-3.846-19.012-3.846z" class="I"/><path d="M1434.025 317.015c-15.265.002-30.511 7.842-42.928 22.076-19.677 22.557-28.643 56.348-23.982 90.39 3.91 28.566 23.317 38.744 40.177 38.744 4.56 0 9.096-.736 13.119-2.128 22.352-7.737 24.385-23.454 26.738-41.652.761-5.876 1.479-11.428 3.001-16.627 1.241-4.24 3.405-8.681 5.911-13.824 3.942-8.086 8.839-18.134 11.077-29.867 1.985-10.39 4.479-35.424-15.157-43.475-5.886-2.413-11.925-3.637-17.951-3.637z" class="C"/><g clip-path="url(#b)" opacity=".6" class="C"><path d="M1434.025 325.403c-12.806.001-25.807 6.821-36.607 19.202-18.109 20.758-26.33 52.063-21.993 83.738 4.001 29.223 25.403 31.494 31.867 31.494 3.637 0 7.225-.577 10.376-1.667 16.701-5.781 18.65-15.375 21.162-34.8.805-6.22 1.564-12.083 3.269-17.908 1.441-4.919 3.746-9.651 6.416-15.131 3.726-7.646 8.356-17.143 10.384-27.777 1.599-8.366 3.812-28.438-10.1-34.142-4.872-1.996-9.839-3.009-14.769-3.009z"/></g><path d="M1428.963 386.262c2.097-9.087 10.95-14.679 15.145-18.64s9.086-37.979 2.33-42.872-30.523 4.194-40.309 14.912-15.145 45.668-15.145 45.668l23.299 10.019 3.729-2.33z" class="J"/><path d="M1418.999 384.948l-.214-1.948c-1.323-10.578-15.294-17.969-21.529-10.699-.355.41-.69.866-.988 1.379l-3.886 3.104-1.147 4.399-.615 2.339-.102.41 27.335 10.252s.457 0 .848-.969c.261-.662.494-1.78.523-3.663.027-1.202-.038-2.703-.225-4.604" class="B"/><path d="M1444.706 306.853c4.062-.743 8.256-7.267 12.294-5.092s1.198 9.416 1.198 9.416 4.083-6.965 8.122-4.928.642 9.465 1.175 11.265-22.789-10.661-22.789-10.661" class="G"/><path d="M1458.198 311.177c-2.596 4.719-10.027 5.159-10.027 5.159l10.755 4.973s-2.637-4.133-.728-10.132" class="I"/><path d="M1410.09 349.448l-.634-2.087-.588-1.641c-5.079-12.852-13.196-6.095-18.35 4.427-.708 1.436-1.37 3.038-1.986 4.744a66.1 66.1 0 0 0-1.696 5.517c-.279 1.063-.54 2.135-.764 3.207-.466 2.199-.82 4.408-1.025 6.505a43.14 43.14 0 0 0-.205 3.019c-.121 3.822.336 7.046 1.612 8.892.699 1.034 1.659 1.631 2.899 1.668a11.91 11.91 0 0 0 1.267-.177c2.041-.382 3.319-1.221 4.195-2.581.866-1.343 1.341-3.206 1.76-5.63.141-.783.365-1.808.681-3.01.644-2.433 1.641-5.555 2.917-8.724l.55-1.323.746-1.678c2.227-4.772 5.06-9.19 8.285-10.941.112-.065.224-.131.336-.187" class="B"/><path d="M1410.09 349.448l-1.222-3.728c-5.079-.717-13.28.578-20.336 9.171-.978 2.731-1.826 5.732-2.46 8.724-.699 3.29-1.137 6.589-1.23 9.524 2.46-2.422 7.512-6.626 15.331-9.562.792-.298 1.612-.578 2.461-.848 2.227-4.772 3.97-11.193 7.12-13.094.112-.065.224-.131.336-.187" class="J"/><path d="M1430.36 374.379c-.839-12.265-10.14-25.108-20.904-27.019a14.73 14.73 0 0 0-3.327-.242c-6.441.252-13.804 7.009-19.293 13.29-4.819 5.546-8.202 10.709-8.202 10.709s-2.33-.233-3.728 3.961c-.932 2.805-2.097 8.23 0 7.53-.54 2.182-.074 2.722.466 3.188 1.632 1.398 4.194-7.223 7.456-12.815.522-.886 1.267-1.864 2.219-2.861 3.335-3.514 9.105-7.233 15.675-7.866 2.955-.298 6.077.037 9.208 1.286.289.102.57.223.858.354 5.127 2.32 7.242 7.735 7.96 13.281.344 2.675.373 5.378.251 7.773a60.77 60.77 0 0 1-.354 4.119c-.299 2.405-.634 3.952-.634 3.952.233.074.466.14.69.196 1.649.419 3.103.531 4.371.354 6.058-.867 8.043-8.286 7.288-19.19" class="B"/><path d="M1424.377 369.178c-1.491-5.229-6.859-11.892-14.446-5.639a10.93 10.93 0 0 1 .857.355c5.127 2.32 7.242 7.735 7.96 13.281 1.78-.783 6.925-3.476 5.629-7.997" class="J"/><path d="M1411.022 365.059c.918-3.902 5.747-1.01 4.737-.311 2.874-.233 3.962 1.398 2.253 2.252 3.417.777 3.883 2.253 1.709 3.107 2.486 1.398 1.009 3.728-1.553 3.806s-8.078-4.893-7.146-8.854" class="B"/><path d="M1450.632 391.155c5.902-2.097 12.271-18.407 13.048-35.494s-1.399-25.319-11.651-26.562-7.611 12.582-7.611 12.582z" class="J"/><g class="B"><path d="M1443.408 343.157c.233 10.019-3.262 17.708-2.563 31.455s5.989 17.764 9.787 16.543c6.523-2.097 7.688-26.096 5.824-39.377s-6.058-23.067-10.252-22.601-7.145 11.029-7.145 11.029-2.097-1.165-2.485.466 2.951 3.961 4.427 3.883 2.407-1.398 2.407-1.398"/><path d="M1405.662 340.594c-3.59-6.326 2.68-18.174 19.572-21.086s24.582.699 25.747 1.98.816 4.078 1.747 6.291-.699 4.66-4.194 4.66-4.543-6.524-4.543-6.524-13.517 9.788-20.737 13.398c-6.757 3.378-15.145 5.592-17.592 1.281"/></g></g><g clip-path="url(#c)"><path d="M1434.477 395.737c-3.572-4.971 2.485-15.689.622-28.115h0c-1.864-12.427-9.786-15.689-9.942-17.864h0c-.156-2.174 1.863-4.505 3.728-3.572h0c1.864.931 9.01 8.543 10.096 20.504h0c1.088 11.961-2.33 20.814-1.242 25.474h0c1.087 4.66 10.252 8.544 13.98 5.437h0c-1.087 5.437-6.213 10.408-6.213 10.408h0c-.156-4.04-7.456-7.301-11.029-12.272" fill="url(#d)"/></g><g clip-path="url(#e)"><path d="M1423.072 393.569l-.4-.55c-.802-1.016-1.958-2.227-3.449-3.467l-.578-.484c-5.033-4.036-13.384-8.324-23.831-8.127a33.55 33.55 0 0 0-3.579.242c-1.557.167-3.15.447-4.781.847.699 1.035 1.659 1.632 2.898 1.669a11.97 11.97 0 0 0 1.268-.177l-.103.41 27.336 10.252s.456 0 .848-.969c1.649.419 3.103.531 4.371.354" class="J"/><path d="M1427.595 406.483c6.356 13.669 9.607 30.062 3.698 41.291-6.99 13.28-25.863 16.542-37.979 12.582s-17.475-13.515-19.573-20.971c-3.812-13.556-.698-20.038-.698-27.727s-1.165-12.815 2.796-20.504 13.514-8.388 21.202-7.689c7.407.674 17.405 1.137 25.833 14.283 2.044-.334 5.262-.503 6.787 1.328 1.887 2.264 1.94 7.123-2.066 7.407" class="B"/><g class="D"><path d="M1387.488 400.708c-1.048-2.214-2.213-3.961-1.281-5.243s5.941-.233 5.242.583c-.369.431-1.586.569-2.65.603a1.63 1.63 0 0 0-1.567 1.815zm7.34 1.748c2.68-7.106 11.417-3.262 13.048.932-4.194-3.262-11.068-2.912-13.048-.932"/><path d="M1385.275 402.58c-2.333-5.892-7.245-5.892-9.087.575 1.719-3.737 7.122-2.874 9.087-.575m10.485 10.128c-.3-1.503 7.806-2.796 7.922-1.049s-7.572 2.796-7.922 1.049"/><path d="M1381.663 411.775c.699-1.282-4.849-4.133-5.358-3.029-.7 1.514 4.451 4.694 5.358 3.029m8.971-21.436c.267-1.332 5.592.583 5.592 1.048s-5.824.117-5.592-1.048"/></g></g><text transform="matrix(1 0 0 -1 1111.5439 242.3184)" class="E F M N"><tspan x="0 24.375 52.377 52.533 76.167 89.427 117.195" y="0">i;ajeks</tspan></text><text transform="matrix(1 0 0 -1 1132.5137 208.5078)" class="E F O P"><tspan x="0 18.562 26.709 45.36 64.161" y="0">udih </tspan></text><g clip-path="url(#f)"><path d="M1270.565 391.854c0-55.419-44.926-100.346-100.345-100.346s-100.345 44.927-100.345 100.346 44.925 100.345 100.345 100.345 100.345-44.926 100.345-100.345" class="Q"/><path d="M1099.619 423.716c-12.019-82.688 73.554-130.762 109.609-112.014 35.172 18.29 38.06 98.08 6.25 140.859-27.883 37.498-106.243 37.311-115.859-28.845" class="G"/><path d="M1106.296 420.69c-10.845-74.617 66.375-117.999 98.912-101.08 31.738 16.504 34.344 88.507 5.64 127.109-25.162 33.839-95.874 33.67-104.552-26.029" class="I"/><path d="M1108.74 419.583c-10.416-71.663 63.747-113.327 94.995-97.078 30.483 15.851 32.984 85.003 5.417 122.077-24.166 32.498-92.078 32.336-100.412-24.999" class="C"/><g clip-path="url(#g)" opacity=".6" class="C"><path d="M1119.435 414.738c-8.537-58.737 52.249-92.887 77.861-79.568 24.984 12.991 27.035 69.671 4.439 100.058-19.807 26.636-75.47 26.504-82.3-20.49"/></g><path d="M1193.83 309.217s5.592-7.767 10.718-6.369 3.073 8.077 3.073 8.077 2.829-5.902 7.8-3.262 0 9.942 0 9.942z" class="G"/><path d="M1179.744 395.004v-.009c-.913-3.672-4.008-7.559-11.389-11.529-14.138-7.614-22.834-6.366-31.222 2.022-12.423-7.773-10.876 4.968-7.615 6.991-9.786 5.433-16.756 14.753-16.617 29.358.112 12.125 5.686 19.459 12.806 23.747 2.628 1.584 5.471 2.749 8.322 3.588 21.119 6.216 36.815-6.216 39.452-17.867s2.172-20.811 4.819-26.869c1.257-2.898 2.273-6.067 1.444-9.432" class="B"/><path d="M1179.744 394.995c-.913-3.672-4.008-7.559-11.389-11.529-14.138-7.614-22.834-6.366-31.222 2.023-12.423-7.773-10.876 4.967-7.615 6.99-9.786 5.433-16.756 14.753-16.617 29.358.112 12.125 5.686 19.46 12.806 23.747-14.437-16.86 6.769-53.904 28.047-54.817 15.257-.652 23.492.174 25.99 4.228" class="J"/><g class="D"><path d="M1153.909 407.232c.883-.993 5.825 3.262 5.01 4.776s-5.942-3.728-5.01-4.776m14.097 8.737c-.373-1.367 4.427-1.165 4.66-.116s-4.31 1.398-4.66.116m-13.981-16.426c5.476-3.612 9.087.116 8.971 3.844-1.747-3.728-8.971-3.844-8.971-3.844m15.728 5.825c2.563-2.33 5.01-1.98 5.01 2.68-.699-3.146-5.01-2.68-5.01-2.68"/><path d="M1168.238 398.96c.867-1.734 3.612-.233 3.263 1.281s-3.961.117-3.263-1.281m15.262-14.795c6.291 10.835 10.951 13.631 16.66 12s10.019-33.436 10.485-36.814c1.864 2.097 4.194 2.213 4.426.815s-6.291-7.572-8.271-5.242-18.29 27.028-18.29 27.028z"/></g><g class="B"><path d="M1173.171 396.708c-4.482-4.482-3.029-9.553.698-10.718s6.99 2.214 6.99 2.214l3.03-6.059 2.096 4.661s-.582 3.961-3.844 7.689-7.922 3.261-8.97 2.213"/><path d="M1197.536 360.604c-1.044-6.794-2.115-12.945-2.153-16.17-.112-9.665.578-24.922-19.572-21.902-20.15 3.038-35.183 18.295-42.639 34.605l7.923 21.436 4.072 2.675s21.557 5.946 24.586 4.902c3.029-1.053 8.966-9.441 8.966-9.441s5.946 14.213 16.087 13.858c6.756-.233 4.808-16.375 2.73-29.963"/></g><path d="M1197.536 360.604c-1.044-6.794-2.115-12.945-2.153-16.17-.112-9.665.578-24.922-19.572-21.902-20.15 3.038-35.183 18.295-42.639 34.605l7.923 21.436 4.072 2.675s21.557 5.946 24.586 4.902c3.029-1.053 8.966-9.441 8.966-9.441-3.262-9.553-4.884-20.849-3.141-29.703-6.291 12.694-11.883 17.708-12.703 6.058-.237-3.408-.953-5.969-1.847-7.887-1.922-4.122-.447-9.006 3.502-11.261 6.143-3.51 14.138-7.076 19.436-5.671 9.665 2.563 8.621 12.237 5.714 20.625-2.917 8.388-2.219 23.645.689 26.907 1.258 1.398 4.529-5.788 7.167-15.173" class="J"/></g><g clip-path="url(#h)"><path d="M1194.141 445.599c1.514-9.902-8.777-15.999-10.525-26.251h0c-1.747-10.252 12.234-8.038 20.971-14.097h0c8.737-6.058 6.64-17.824-3.729-24.698h0s.397-7.155 3.03-5.009h0c15.727 12.815 13.746 28.076 2.562 33.319h0c-11.183 5.242-18.64 8.388-15.144 13.514h0c3.494 5.126 14.562 12.077 14.329 18.251h0c-.157 4.157-5.998 9.458-9.337 9.457h0c-1.621 0-2.652-1.25-2.157-4.486" fill="url(#i)"/></g><g clip-path="url(#j)"><path d="M1197.986 316.99c5.785-.163 9.635-6.065 9.635-6.065s-2.052 7.285 0 10.089c-4.472 2.338-9.635-4.024-9.635-4.024" class="I"/><g class="B"><path d="M1194.801 390.572c8.038 0 11.649-18.407 12.349-29.591s.699-21.902.699-21.902 2.563 3.495 3.845 2.796-3.612-11.417-7.456-10.485-9.787 10.369-12.699 19.805-2.33 23.184-.816 29.591 4.078 9.786 4.078 9.786m-35.067-11.878c1.789-14.987 2.172-27.047-.876-33.58 0-.019-.019-.038-.028-.056-1.939-4.092-5.229-5.984-10.402-5.042-13.392 2.442-22.013 28.77-16.533 35.528 5.471 6.756 13.272 5.703 13.272 5.703l-3.374-13.392s3.728-8.51 8.155-6.291 4.315 10.829 3.606 18.406c-.689 7.578 1.951 8.5 3.927 8.621 1.977.112 5.049 1.044 7.146-2.795s.465-9.554-4.893-7.102"/></g><path d="M1158.83 345.058c-1.938-4.091-5.229-5.983-10.401-5.042-13.393 2.442-22.014 28.771-16.534 35.528 5.471 6.757 13.272 5.703 13.272 5.703l-3.374-13.392c-2.796 4.781-7.456 6.524-8.388-.121-.931-6.636 7.69-23.766 15.956-25.63 5.518-1.24 8.136.783 9.469 2.954" class="J"/></g><text transform="matrix(1 0 0 -1 869.1904 242.3184)" class="E F M N"><tspan x="0 24.375 48.945 72.579 85.839 113.607" y="0">ihjeks</tspan></text><text transform="matrix(1 0 0 -1 888.3662 208.5078)" class="E F O P"><tspan x="0 18.562 26.709 45.36 64.161" y="0">udih </tspan></text><g clip-path="url(#k)"><use xlink:href="#BM" class="Q"/><path d="M994.856 420.581c16.706-43.852 5.376-90.024-28.709-106.083-31.932-15.044-76.069-6.96-96.928 28.426-26.096 44.27-20.755 99.042 14.446 122.558 38.055 25.422 92.642 3.787 111.191-44.901" class="G"/><path d="M985.709 415.994c15.626-40.465 1.875-83.418-27.949-98.236-28.216-14.018-63.893.818-82.302 34.805-19.977 36.881-13.893 85.034 16.889 105.757 32.842 22.111 76.246 1.996 93.362-42.326" class="I"/><path d="M983.159 414.527c15.075-38.703 2.039-79.963-26.566-94.26-27.122-13.554-61.442.744-79.073 33.483-19.07 35.41-13.075 81.446 16.411 101.163 31.37 20.976 72.781 1.836 89.228-40.386" class="C"/><g clip-path="url(#l)" class="K C"><path d="M972.635 408.472c12.675-31.414 2.495-65.518-20.998-77.555-22.478-11.518-51.016.469-65.402 27.847-15.349 29.21-9.885 66.511 14.202 82.171 25.32 16.462 58.596 1.247 72.198-32.463"/></g><path d="M949.844 311.261c5.392.704 9.41-6.395 14.109-3.744s2.304 10.709 2.304 10.709 3.879-7.968 8.898-5.209-.015 10.16 1.972 13.221c-2.47 2.45-11.507-6.83-11.507-6.83z" class="G"/><path d="M936.84 388.08c-3.734-1.603-2.786-5.047-1.098-6.811s3.511 1.338 4.317 3.273c1.434-4.914-4.901-17.567-4.901-17.567l7.171-4.049s2.831 18.051 1.638 21.728-4.084 4.732-7.127 3.426" class="D"/><path d="M949.993 333.882l-.242-.853-.421-1.26c-4.594-13.004-23.782-11.823-39.275-2.861-15.503 8.962-21.84 28.263-17.046 47.389l17.374-2.142 6.322-.777s.428-.075 1.172-.23a14.14 14.14 0 0 1 .619-.127c1.832-.4 4.898-1.11 8.353-2.16 1.997-.605 4.123-1.324 6.211-2.158a50.61 50.61 0 0 0 3.663-1.618c2.743-1.334 5.237-2.901 7.052-4.684.383-.378.759-.794 1.128-1.238 2.661-3.163 4.982-7.938 5.885-13.552a37.3 37.3 0 0 0 .203-1.452c.422-3.824.202-7.993-.998-12.277" class="J"/><g clip-path="url(#m)" class="L D"><path d="M949.751 333.029l-.421-1.26c-4.594-13.004-23.782-11.823-39.275-2.861-15.503 8.962-21.84 28.263-17.046 47.389l17.374-2.142 6.323-.777s.427-.075 1.171-.23c.191-.043.392-.086.62-.127-2.161-3.428-17.79.666-22.061-3.227-4.281-3.894-4.49-30.383 18.094-39.948 22.584-9.575 31.816-2.511 34.333 1.891.293.518.593.943.888 1.292"/></g><path d="M954.502 372.69c8.656 6.234 14.024-5.771 11.351-14.727s-8.395-16.867-8.395-16.867z" class="D"/></g><g clip-path="url(#n)"><path d="M958.283 422.447c-1.255-.283-3.209-.015-5.414.253h0c-4.838.589-10.887 1.178-13.431-4.058h0c-3.705-7.613 1.166-14.637 11.386-22.082h0c4.087-2.981 6.475-5.993 7.192-8.914h0c1.1-4.378-1.547-8.527-7.795-11.964h0s-1.166-1.508-1.943-3.047h0c-1.086-2.123-1.451-4.329 2.89-2.808h0c.816.291 1.803.707 2.977 1.275h0c7.01 3.415 11.422 8.699 12.875 14.062h0c1.047 3.784.606 7.608-1.43 10.841h0c-4.926 7.81-20.652 13.307-15.668 18.189h0c2.349 2.303 5.992 1.429 9.338.556h0c3.763-.982 7.15-1.965 7.902 1.569h0c1.421 6.677 6.958 5.967 6.958 5.967h0l-13.114 13.036s1.293-11.969-2.723-12.875" fill="url(#o)"/></g><g clip-path="url(#p)"><path d="M950.221 375.682s-1.166-1.508-1.943-3.047h0l2.89-2.808c.816.291 1.803.707 2.977 1.275h0c7.01 3.415 11.422 8.699 12.875 14.062h0l-9.004 2.482h0c1.1-4.378-1.547-8.527-7.795-11.964" fill="url(#q)"/></g><g clip-path="url(#r)" class="B"><path d="M958.658 360.135c.453-4.123-5.807-10.813-11.495-15.978-.017-.02-.044-.041-.062-.061-4.582-4.149-8.774-7.294-8.774-7.294-1.034 4.383-1.783 8.711-2.216 12.826a82.68 82.68 0 0 0-.279 3.364l-.001.01c-.779 12.709 1.833 22.691 9.117 24.197 10.192 2.111 12.877-9.603 13.71-17.064"/><path d="M954.595 328.052c-1.6 1.262-3.178 3.296-4.602 5.83-1.51 2.688-2.841 5.923-3.83 9.37-1.148 3.981-1.835 8.229-1.827 12.214-.002.846.035 1.685.111 2.498.083 1.106.235 2.169.456 3.199a18.8 18.8 0 0 0 .805 2.781c4.236 11.249 10.276 5.405 12.949-3.809.673-2.952 1.12-6.981 1.418-11.058l.286-4.557c.337-6.537.355-12.128.355-12.128s3.145 2.096 4.825.492c1.679-1.614-7.529-7.51-10.946-4.832"/></g><g clip-path="url(#s)"><path d="M927.946 376.19c-1.436-4.171-1.836-16.573-5.197-20.093h0c-4.518-4.733-12.401 4.033-14.018 7.964h0c-3.385 8.226-5.789 4.457-7.429 3.248h0c-4.735-3.49-.997-15.106 6.135-20.88h0c7.132-5.775 21.562-9.547 24.553 5.134h0c2.458 12.073.654 20.094.654 20.094h0s4.58-2.818 4.333.768h0c-.174 2.543-3.921 5.47-6.597 5.471h0c-1.098 0-2.016-.492-2.434-1.706" fill="url(#t)"/></g><g clip-path="url(#u)"><g clip-path="url(#v)" class="K D"><path d="M965.541 332.884c-1.68 1.604-4.825-.491-4.825-.491s-.018 5.59-.355 12.127c-3.096-3.493-14.09-.931-15.914 13.445-.076-.814-.113-1.653-.111-2.498 0-.237.01-.477.014-.715-.832-5.963-6.749-14.508-8.24-5.123.433-4.115 1.182-8.443 2.217-12.827 0 0 3.634 2.728 7.835 6.454.99-3.451 2.321-6.686 3.831-9.373 1.424-2.534 3.002-4.568 4.602-5.831 3.417-2.678 12.626 3.218 10.946 4.832"/></g><g class="B"><path d="M947.978 330.89c3.278-2.056 7.296 5.514 7.146 7.696s-4.112 2.85-4.112 2.85-.617 2.151-2.01 1.898-2.825-11.315-1.024-12.444m-16.896 55.234c-1.961-6.197-7.664-12.378-12.846-13.825-7.718-2.147-23.646.686-29.431 7.459-8.255-7.738-18.28 6.845-8.39 7.76-10.839 6.19-17.998 29.522-3.321 44.873 9.513 9.949 22.923 8.597 32.825 2.502 5.369-3.315 9.715-8.017 11.848-13.077 6.083-14.383 2.831-15.34 9.037-27.14 1.309-2.494 1.245-5.525.278-8.552"/></g><g class="D"><path d="M918.497 390.362c1.089-1.849 5.141.932 4.308 2.957s-5.225-1.401-4.308-2.957m.141-8.78c1.131-1.31 4.549 1.123 4.577 2.397s-4.577-2.397-4.577-2.397"/><path d="M905.466 389.814c4.068-3.653 10.177.006 8.436 3.472-1.319-4.371-8.436-3.472-8.436-3.472m15.681 7.438c3.306-2.664 5.442-.088 4.581 4.017-.914-3.533-4.581-4.017-4.581-4.017m-13.619 1.262c.731-.772 5.113 3.012 4.474 3.893s-6.22-2.047-4.474-3.893m9.619 6.444c-.059-1.402 4.124-1.104 4.267.178s-4.223.866-4.267-.178"/></g><g clip-path="url(#w)" class="K D"><path d="M931.082 386.124c-1.961-6.197-7.664-12.378-12.846-13.825-7.718-2.147-23.646.686-29.431 7.459-8.255-7.738-18.28 6.845-8.39 7.76-10.839 6.19-17.998 29.522-3.321 44.873 9.513 9.949 22.923 8.597 32.825 2.502-24.18 5.996-38.943-12.471-31.61-32.747 7.544-20.861 26.596-28.01 36.434-27.568 8.564.382 14.072 6.249 16.339 11.546"/></g><path d="M960.482 319.21c3.96.518 6.059-1.549 6.059-1.549s-1.679 3.299.211 5.744c.06 1.519-7.872-.176-6.27-4.195" class="I"/></g><text transform="matrix(1 0 0 -1 591.0498 242.3184)" class="E F M N"><tspan x="0 24.258 48.633 48.789 72.423 85.683 113.451" y="0">miajeks</tspan></text><text transform="matrix(1 0 0 -1 610.1475 208.5078)" class="E F O P"><tspan x="0 18.562 26.709 45.36 64.161" y="0">udih </tspan></text><g clip-path="url(#x)"><use xlink:href="#BN" class="Q"/><path d="M720.291 424.005c17.016-43.168-1.844-92.011-42.127-109.093s-86.732 4.065-103.749 47.233 1.845 92.011 42.127 109.093 86.732-4.065 103.749-47.233" class="G"/><path d="M707.421 419.446c14.458-37.852-.715-80.343-33.89-94.908s-71.789 4.314-86.247 42.166.716 80.344 33.89 94.908 71.789-4.314 86.247-42.166" class="I"/><path d="M704.922 418.349c13.856-36.277-.686-77-32.48-90.959s-68.802 4.134-82.659 40.411.686 77.001 32.481 90.959 68.802-4.134 82.658-40.411" class="C"/><g clip-path="url(#y)" class="K C"><path d="M694.479 413.765c11.343-29.696-.561-63.033-26.588-74.459s-56.322 3.384-67.665 33.081.562 63.032 26.588 74.459 56.322-3.385 67.665-33.081"/></g><path d="M676.644 326.014c4.391.367 8.303-5.69 8.303-5.69s-3.368 7.398-1.141 9.989c.163 1.66-8.619.226-7.162-4.299" class="I"/><path d="M668.883 311.709c5.523.809 9.761-6.414 14.542-3.618s2.193 11.03 2.193 11.03 4.11-8.118 9.217-5.205-.178 10.428 1.813 13.602c-2.574 2.475-11.702-7.194-11.702-7.194z" class="G"/><g clip-path="url(#z)" class="L C"><path d="M618.572 445.211c9.636 10.019 32.52 16.543 52.192 4.427-5.621 2.563-13.65 1.864-16.661-3.495s-7.427-.932-9.635 2.563-5.637-.901-9.435-3.495c-6.825-4.66-7.026 4.66-16.461 0"/></g><path d="M672.396 358.926c-3.42-8.854-10.56-15.536-25.789-18.957 1.268.27 3.747-.447 6.189-1.631 5.918-2.87 11.557-8.472-1.212-9.236-13.01-.782-17.596 4.66-15.76 10.14.709 2.116 2.377 4.241 4.884 6.012-8.034-.42-9.926 13.607-10.215 16.207.14-1.77.289-8.751-5.937-9.842-4.501-.782-11.948 6.869-16.934 13.495-2.936 3.906-5.014 7.457-5.126 8.724-.308 3.411 6.216 6.058 8.08 4.036s.932-5.751-2.796-4.968c1.454-.326 3.505-1.165 5.555-2.134 3.887-1.827 7.801-4.082 7.801-4.082s-.774 4.501.624 9.012c1.398 4.502 26.096 15.527 26.096 15.527s4.344-1.547 11.333-4.501 16.627-18.948 13.207-27.802" class="B"/></g><g clip-path="url(#AA)"><path d="M667.114 421.678c-2.952-6.441-7.455-17.863 8.854-20.97h0c16.31-3.106 22.058 7.767 15.688 13.359h0c-6.368-.156-6.368-3.107-6.368-3.107h0c3.107-1.243-3.417-8.854-11.65-3.417h0c-8.233 5.436 7.766 20.969 1.398 27.494h0c-1.251 1.281-2.185 1.832-2.903 1.832h0c-2.937 0-2.273-9.2-5.019-15.191" fill="url(#AB)"/></g><g clip-path="url(#AC)"><g clip-path="url(#AD)" class="K D"><path d="M643.736 349.681c-8.854-1.864-16.711 19.619-9.087 23.533 8.621 4.427 17.941-21.669 9.087-23.533m15.453 37.047c-6.99 2.954-11.333 4.501-11.333 4.501s-24.699-11.025-26.097-15.527c-1.398-4.511-.624-9.012-.624-9.012s-3.914 2.255-7.801 4.082c5.108-3.374 2.405-11.286-5.713-5.657 4.986-6.627 12.433-14.278 16.934-13.496 6.226 1.091 6.077 8.072 5.937 9.842.289-2.6 2.181-16.627 10.215-16.207-2.507-1.771-4.175-3.896-4.884-6.011 3.877 2.619 11.184 6.793 10.784.727 15.229 3.42 22.368 10.102 25.788 18.956s-6.217 24.847-13.206 27.802"/></g><path d="M655.309 350.069c3.789-1.263 3.728 4.35 21.125 4.66s22.213 11.495 21.125 23.766-9.94 18.485-16.775 21.592-1.243 12.892 4.504 10.873 9.631-1.088 6.369 3.107-17.708 4.038-19.261-8.699 11.029-12.737 16.776-20.97-.932-22.99-9.786-23.611-22.057-3.572-24.388-5.747-1.553-4.35.311-4.971" class="G"/><path d="M675.397 349.057c-2.106-3.383-4.567-6.021-6.729-6.599-6.99-1.864-6.683 1.865-6.683 1.865.513 4.864 1.296 9.058 2.377 12.516 2.516 8.025 6.617 12.107 12.694 11.557 6.002-.531 3.048-11.799-1.659-19.339" class="B"/><path d="M675.397 349.057c-2.106-3.383-4.567-6.021-6.729-6.599-6.99-1.864-6.683 1.865-6.683 1.865.513 4.864 1.296 9.058 2.377 12.516-.503-10.103 4.781-13.644 11.035-7.782" class="J"/></g><g clip-path="url(#AE)"><path d="M648.474 391.388c-2.796-2.33 4.349-6.525 4.349-6.525h0c6.836-.931 12.738-5.902 8.699-8.697h0c-4.039-2.796-11.961-2.486-13.824-4.971h0c-1.864-2.486-1.399-7.611 1.242-8.077h0c2.64-.467 2.951 4.348 2.951 4.348h0s14.136-3.572 20.66 3.418h0c6.523 6.99-5.281 19.882-12.738 21.28h0c-3.412.64-5.491 1.02-7.01 1.02h0c-1.8 0-2.813-.532-4.329-1.796" fill="url(#AF)"/></g><g clip-path="url(#AG)"><g clip-path="url(#AH)" class="L C"><path d="M609.252 349.914c4.66-10.951 16.776-15.844 21.669-16.776-3.728 3.961-.932 9.32-5.825 12.815-5.433 3.88-6.99-3.961-15.844 3.961"/></g><g clip-path="url(#AI)" class="L C"><path d="M684.978 338.963c7.223 3.262 8.854 10.485 8.854 16.077-1.398-2.33-4.194-3.495-8.155-4.66s2.563-4.66-.699-11.417"/></g><path d="M651.581 329.099c8.078-.155 20.193 9.631 20.193 9.631s1.554-4.971 5.282-3.107-3.333 7.467-5.903 8.233c-7.301 2.175-19.417 1.708-24.543-3.883s4.971-10.874 4.971-10.874" class="B"/><path d="M649.37 413.228l-1.206 2.858c-9.087 20.504-31.455 27.727-45.668 15.845s-10.718-30.99-1.398-42.407l2.113-2.577c-5.327-5.976 1.009-10.711 5.9-6.644 7.071-7.036 13.697-9.055 26.238-1.496 13.674 8.242 19.51 14.08 16.553 26.705 5.867 1.559 4.292 11.729-2.532 7.716" class="J"/><path d="M596.903 418.416c-3.851-13.479 10.252-36.348 17.475-39.843s18.174-2.097 25.397 4.194 11.65 10.718 10.019 19.805-14.679 30.057-27.96 30.989-22.601-6.99-24.931-15.145" class="B"/><g class="D"><path d="M613.097 393.252c1.063-1.671 4.893 3.961 3.495 5.009s-4.311-3.727-3.495-5.009m2.679-6.641c4.66-2.679 8.737.816 8.039 4.66-1.049-3.262-5.825-5.126-8.039-4.66m16.893 9.204c2.33-.233 6.174 1.282 6.874 4.427 1.12-4.177-2.584-6.919-6.874-4.427m-2.213-10.951c.926-1.204 4.543 1.049 4.077 2.563s-5.242-1.048-4.077-2.563m-1.515 20.853c-.117-1.631 5.825-.466 5.941.583s-5.824 1.048-5.941-.583"/></g><g clip-path="url(#AJ)" opacity=".6" class="G"><path d="M686.853 414.449c5.938-3.042 2.014-9.886-6.458-11.023 11.182-1.559 17.246 9.031 6.458 11.023"/></g></g><text transform="matrix(1 0 0 -1 1615.3701 565.9072)" class="E F M N"><tspan x="0 24.375 24.531 48.165 71.799 85.059 112.827" y="0">isjeks</tspan></text><text transform="matrix(1 0 0 -1 1634.1558 536.0967)" class="E F O P"><tspan x="0 18.562 26.709 45.36 64.161" y="0">udih </tspan></text><g clip-path="url(#AK)"><path d="M1772.207 716.056c0-55.419-44.927-100.345-100.346-100.345s-100.345 44.926-100.345 100.345 44.926 100.345 100.345 100.345 100.346-44.926 100.346-100.345" class="Q"/><path d="M1744.96 747.416c17.715-43.259-.876-91.821-41.524-108.466s-87.959 4.93-105.673 48.189.876 91.821 41.523 108.466 87.959-4.93 105.674-48.189" class="G"/><path d="M1735.76 743.648c15.501-37.852-.767-80.344-36.333-94.908s-76.965 4.314-92.465 42.166.768 80.343 36.334 94.908 76.964-4.314 92.464-42.166" class="I"/><path d="M1733.081 742.551c14.854-36.277-.735-77-34.822-90.959s-73.762 4.134-88.617 40.411.735 77.001 34.821 90.959 73.763-4.134 88.618-40.411" class="C"/><g clip-path="url(#AL)" class="K C"><path d="M1721.996 738.012c12.187-29.762-.604-63.171-28.568-74.623s-60.514 3.392-72.702 33.153.604 63.172 28.568 74.623 60.514-3.392 72.702-33.153"/></g></g><g clip-path="url(#AM)"><path d="M1687.941 732.143v-.01l-.158-.233h0l-.671-1.146h0c-3.206-5.975-1.361-10.588 2.247-13.02h0c.484-.327.997-.616 1.537-.858h0c2.45-1.119 5.396-1.371 8.071-.587h0s2.795 8.388-1.865 8.155h0c-1.844-.092-3.215.214-4.174.801h0c-.327.187-.606.411-.839.663h0c-.848.894-1.156 2.106-1.044 3.429h0c.047.568.26 1.156.644 1.677h0c.176.261.4.504.66.727h0c1.305 1.091 3.589 1.585 6.851.317h0a16.8 16.8 0 0 0 .876-.381h0c1.09-.504 2.275-1.194 3.551-2.106h0c1.798-1.287 3.281-2.499 4.464-3.729h0c.242-.252.475-.503.69-.764h0c1.482-1.725 2.376-3.514 2.739-5.574h0a6.12 6.12 0 0 0 .131-.95h0c.261-2.572-.234-5.573-1.407-9.395h0c-.028-.102-.056-.215-.093-.326h0c-.102-.317-.205-.625-.326-.904h0c-1.575-3.999-4.352-4.381-7.531-3.971h0c-.447.056-.894.131-1.361.215h0-.01c-3.616.643-7.586 1.762-10.809-.466h0a12.85 12.85 0 0 1-2.07-1.799h0a14.17 14.17 0 0 1-.895-1.081h0c-2.582-3.411-3.326-7.372-3.326-7.372h0l5.125-2.098s1.631 4.521 5.834 6.768h0c.261.139.541.27.83.39h0c2.04.877 4.613 1.194 7.81.327h0a12.59 12.59 0 0 0 .904-.261h0c.037-.009.074-.028.111-.037h0c7.718-2.47 13.496.615 14.288 7.884h0c.046.41.075.849.084 1.286h0c.084 3.029-.624 6.692-2.311 10.895h0l-.289.709h0c-.056.121-.103.252-.158.373h0c-.876 2.032-1.893 3.904-3.02 5.611h0c-.225.354-.467.698-.709 1.034h0c-2.861 4.055-6.309 7.027-9.776 8.715h0c-.363.186-.728.344-1.091.493h0c-1.792.737-3.574 1.122-5.267 1.122h0c-3.27-.001-6.208-1.435-8.247-4.523" fill="url(#AN)"/></g><g clip-path="url(#AO)"><path d="M1702.764 650.216c4.708.367 8.901-5.691 8.901-5.691s-3.61 7.399-1.222 9.99c.175 1.66-9.241.226-7.679-4.299" class="I"/><path d="M1694.444 635.911c5.921.809 10.464-6.414 15.59-3.618s2.351 11.03 2.351 11.03 4.406-8.118 9.881-5.205-.189 10.428 1.945 13.602c-2.76 2.475-12.546-7.195-12.546-7.195z" class="G"/><g clip-path="url(#AP)" class="L C"><path d="M1668.191 780.675c15.631-3.728 23.319-15.145 24.95-27.494s2.098-23.067 12.116-27.727 27.96-20.504 20.738-39.61c9.552 19.805 6.291 30.756-1.865 40.309s-17.008 14.679-22.6 28.426-14.253 24.931-33.339 26.096"/></g><g clip-path="url(#AQ)" class="L C"><path d="M1614.38 741.899c-6.885-20.661-1.742-67.316 31.777-85.034-10.456 10.284-11.872 21.427-10.709 32.456s-2.813 18.526-11.368 26.481c-9.388 8.73-9.7 26.097-9.7 26.097"/></g><g clip-path="url(#AR)" class="L C"><path d="M1614.924 719.053c2.432-9.726 11.028-11.173 14.713-19.471s-3.054-15.23 1.504-23.031c-7.407 6.302-3.404 13.347-5.014 18.53-2.524 8.12-8.417 7.401-11.203 23.972"/></g><g clip-path="url(#AS)" class="L C"><path d="M1696.404 748.754c1.863-14.446 8.154-16.31 17.009-21.902s13.048-12.116 14.445-17.708c-.932 14.679-10.018 19.805-15.61 22.834s-11.651 5.825-15.844 16.776"/></g></g><g clip-path="url(#AT)"><path d="M1709.554 739.169l-.325-.876h0c-2.843-7.371-7.709-12.871-12.127-13.849h0c-8.387-1.864-3.961-10.718 1.865-8.155h0c5.825 2.563 7.14 11.827 12.349 16.077h0c.885.717 1.78 1.276 2.666 1.687h0c.289.131.567.252.856.354h0c7.736 2.833 15.118-4.371 15.118-4.371h0s2.33 5.592-5.36 19.106h0c-6.402 11.258-14.445 11.65-14.445 11.65h0c2.423-7.39 1.697-15.155-.597-21.623" fill="url(#AU)"/></g><g clip-path="url(#AV)"><path d="M1702.412 667.672c-.364.082-.741.212-1.131.376-4.14 1.737-9 7.625-9 7.625s-2.708-14.959-11.479-17.547c-8.763-2.588-17.686 1.87-24.225 13.338-6.53 11.468-5.535 28.191-7.61 33.094-2.971 7.039-11.694 9.536-16.201 20.508s-.792 31.251 17.503 34.523c3.245.577 6.155.772 8.75.639.052-.003.093.001.136-.003.026.003.051.005.076-.001 11.899-.666 17.231-8.192 18.772-16.57 1.892-10.256-.514-12.899-.866-17.735-.355-4.83 2.813-5.497 3.388-6.988.391-1.01-1.167-4.252-3.271-6.947-.271-.333-.55-.666-.831-.983-.807-.895-1.65-1.675-2.486-2.201s-1.963-.92-3.203-1.216l-.017-.002c-3.852-.918-8.703-.846-8.703-.846s12.417-5.507 19.252-14.403c2.535 5.618 10.097 8.93 15.676 1.311 5.57-7.612 5.938-22.258 5.938-22.258s4.153 3.532 5.56.856c1.401-2.686-1.695-5.542-6.028-4.57" class="B"/><g class="D"><path d="M1655.013 721.406c-.777.451-1.523.912-2.299 1.038-.765.141-1.438.001-1.865-.426-.458-.391-.687-1.038-.78-1.701-.1-.673.008-1.389.232-2.066.071-.349.282-.664.412-.998l.612-.911.329-.434.356-.342c.24-.2.46-.393.698-.481.236-.102.482-.136.785-.134.297.049.642.121.992.288.701.321 1.415.826 2.144 1.393-.384-.789-.9-1.538-1.606-2.118-.343-.302-.759-.527-1.207-.697-.23-.063-.472-.121-.715-.14-.242.023-.503-.012-.733.081-.955.256-1.716.917-2.258 1.637-.314.342-.498.771-.748 1.154-.166.429-.4.832-.49 1.289-.269.88-.316 1.836-.122 2.748.187.907.691 1.796 1.501 2.317.811.531 1.874.529 2.687.138.851-.346 1.474-1.01 2.075-1.635m12.758 2.219s1.959-2.129 4.705-1.849c1.467.15 1.955 3.658 1.955 3.658s-1.26-2.175-2.37-2.359-4.29.55-4.29.55m-.419 6.873c.547-.834 4.678 1.183 4.179 2.614s-5.349-.828-4.179-2.614m9.902-18.514l-.831-.982c-.902.458-1.99 1.253-2.977 2.618.924-.677 2.577-1.262 3.808-1.636"/></g><g clip-path="url(#AW)" class="K D"><path d="M1701.281 668.048c-4.14 1.737-9 7.625-9 7.625s-2.708-14.959-11.479-17.547c-8.763-2.588-17.686 1.87-24.225 13.338-6.53 11.468-5.535 28.191-7.61 33.094-2.971 7.039-11.694 9.536-16.201 20.508s-.792 31.251 17.503 34.523c3.244.577 6.155.772 8.75.639-2.34.032-12.992-1.786-18.534-8.479-6.634-8.01-5.898-21.035-1.88-29.297 4.02-8.277 12.373-15.122 32.112-14.87-3.852-.918-8.704-.846-8.704-.846s12.417-5.507 19.253-14.403c-4.191-8.718-4.531-21.988-4.522-26.222-1.984 14.304-18.495 24.576-21.407 24.067s2.001-21.601 12.068-27.983 20.556 6.018 21.551 9.71c1.002 3.709-1.287 11.622-1.287 11.622s9.11-12.518 12.949-14.869a2.09 2.09 0 0 0 .663-.61"/></g></g><g clip-path="url(#AX)"><path d="M1675.551 706.848c-.015-2.965-1.512-9.046-5.364-10.709h0c-3.853-1.663-6.938.562-9.763 3.344h0c-2.823 2.782-6.945-.391-3.541-4.701h0c6.082-7.742 11.435-12.488 17.522-6.786h0c6.087 5.702 4.216 13.661 5.23 15.141h0c1.013 1.479 5.278 1.173 4.778 5.039h0c-.191 1.472-1.52 2.061-3.094 2.061h0c-2.557 0-5.759-1.553-5.768-3.389" fill="url(#AY)"/></g><g clip-path="url(#AZ)"><g clip-path="url(#Aa)"><g clip-path="url(#Ab)"><path d="M1716.209 711.513c.699-6.758-2.33-10.369-9.203-10.719 8.504-1.281 11.533 1.282 9.203 10.719" fill="url(#Ac)"/></g></g><g clip-path="url(#Ad)"><g clip-path="url(#Ae)"><path d="M1687.55 726.774c-.233-7.107 6.64-9.902 11.301-5.825-7.34-.699-10.718 3.961-11.301 5.825" fill="url(#Af)"/></g></g></g><text transform="matrix(1 0 0 -1 1362.0552 565.9072)" class="E F M N"><tspan x="0 28.002 28.158 55.926 56.082 75.777 99.411 127.179" y="0">;=kafjks</tspan></text><text transform="matrix(1 0 0 -1 1388.0166 534.0967)" class="E F O P"><tspan x="0 18.562 26.709 45.36 64.161" y="0">udih </tspan></text><g clip-path="url(#Ag)"><path d="M1526.067 725.699c0-55.419-44.926-100.345-100.345-100.345s-100.345 44.926-100.345 100.345 44.926 100.345 100.345 100.345 100.345-44.926 100.345-100.345" class="Q"/><path d="M1496.879 753.626c17.063-42.815-.126-89.888-38.396-105.14s-83.125 7.092-100.189 49.907.126 89.887 38.396 105.14 83.125-7.092 100.189-49.907" class="G"/><path d="M1396.502 775.245c-48.993-36.072-.999-143.623 62.194-109.101 66.624 36.396-2.361 153.153-62.194 109.101" class="I"/><path d="M1398.238 772.591c-46.539-34.264-.95-136.427 59.078-103.634 63.285 34.572-2.243 145.48-59.078 103.634" class="C"/><g clip-path="url(#Ah)" class="S H"><path d="M1452.424 678.931c-37.01-20.225-67.271 22.657-63.236 56.712 1.286 10.858 6.058 20.811 15.201 27.54 20.467 15.071 42.312 5.779 55.836-11.687 17.027-21.977 20.867-56.908-7.801-72.565"/></g><path d="M1406.006 760.719c-35.555-26.177-.726-104.226 45.134-79.173 48.346 26.412-1.715 111.141-45.134 79.173" class="H"/><g clip-path="url(#Ai)" opacity=".3" class="H"><path d="M1410.823 753.355c-28.739-21.16-.586-84.25 36.484-63.999 39.081 21.35-1.385 89.84-36.484 63.999"/></g><path d="M1451.427 702.734c-1.575-4.539-5.387-8.957-5.387-8.957s2.684-1.165 1.985-2.563-3.728 0-4.194 1.51c-.382 1.24 2.647 5.806 2.647 8.211v.009c0 .532-.158.96-.55 1.221-2.097 1.399-1.51-1.519-6.058-3.606-4.548-2.107-6.99.344-7.81-2.918-.737-2.973 2.609-5.573 4.446-6.841.69-.475.969-1.36.652-2.143-.569-1.454-1.547-3.43-2.526-2.899-1.518.82.466 3.961.466 3.961s-7.456 3.849-10.252 8.389c-1.305 2.125-.503 3.765.765 4.901 1.435 1.306 3.466 1.967 3.653 1.967.354 0-7.335 4.315-7.456 13.868 0 0 11.65 6.878 14.912 6.524s7.922-4.659 7.577-9.32c-.317-4.24-1.603-5.871-1.827-6.132.541.475 6.822 5.899 9.162.652.764-1.706.513-3.784-.205-5.834" class="B"/><g clip-path="url(#Aj)" class="K D"><path d="M1451.427 702.734c.848 3.802-2.162 3.141-4.949-1.79 0 .532-.158.96-.55 1.221-2.097 1.399-1.51-1.519-6.058-3.606-4.548-2.107-6.99.344-7.81-2.918 1.659 6.832-2.722 7.214-6.449 5.368 1.435 1.306 3.466 1.967 3.653 1.967.354 0-7.335 4.315-7.456 13.868 0 0 11.65 6.878 14.912 6.524s7.922-4.659 7.577-9.32c-.317-4.24-1.603-5.871-1.827-6.132.541.475 6.822 5.899 9.162.652.764-1.706.513-3.784-.205-5.834"/></g></g><g clip-path="url(#Ak)"><path d="M1458.199 740.299c-3.961-4.194-8.776-9.475-9.475-20.426h0c-.7-10.951-3.961-12.582-11.068-13.513h0c-3.236-.425-1.981-4.077 1.864-2.796h0c3.845 1.281 10.834-2.331 13.631 11.184h0c2.795 13.514 26.174 33.94 31.766 14.989h0c-.933 16.776-16.232 35.416-19.262 37.28h0c3.262-11.184-3.495-22.523-7.456-26.718" fill="url(#Al)"/></g><g clip-path="url(#Am)"><g class="B"><path d="M1421.463 717.583c-2.33-4.311-3.379-13.864 1.747-14.33s10.369 7.224 10.369 7.224-.233-2.214 1.631-2.098.582 5.709-1.398 5.476-3.844-5.243-7.456-5.243-.699 8.388-.699 8.388zm14.912 4.621c6.291-1.631 7.456-5.359 5.126-6.408s-4.894-1.631-4.544-3.261 1.282-3.496 3.263-2.331-.234 3.03-.234 3.03 4.427-2.563 6.757 1.048-1.631 10.718-8.737 10.602-1.631-2.68-1.631-2.68"/><path d="M1419.832 715.757c8.698-1.398 16.402 1.882 19.883 9.941 2.951 6.835-1.399 24.232-8.234 30.912-11.076 10.824-34.201 4.382-28.891-18.33 2.796-11.96 11.067-21.531 17.242-22.523"/><path d="M1439.56 736.572c4.814 2.796 4.038-4.971.311-4.816-1.244 3.418-.311 4.816-.311 4.816m-24.388-17.242c-1.864-3.573-9.631-1.708-3.417 3.262 3.262-.621 3.417-3.262 3.417-3.262"/></g><g class="D"><path d="M1415.638 723.835s5.437-2.796 6.059 2.952c-1.088-2.175-6.059-2.952-6.059-2.952m13.203 6.99c2.874 0 4.894 2.019 5.437 3.262-.078-3.495-2.408-5.203-5.437-3.262m-15.378-.078c.622-.622 3.029 2.02 2.485 2.796s-2.951-2.33-2.485-2.796m13.204 7.689c-.144-1.002 2.796-.932 3.106-.311s-2.951 1.398-3.106.311m.232-15.611c.553-.754 3.262 1.398 2.796 1.941s-3.65-.776-2.796-1.941"/></g><g clip-path="url(#An)" class="S H"><path d="M1456.18 718.243c-21.855-31.222-70.366-23.766-66.992 17.4 1.286 10.858 6.058 20.812 15.201 27.541 20.467 15.07 42.312 5.778 55.836-11.687 4.455-8.407 5.508-19.609-4.045-33.254"/></g><g clip-path="url(#Ao)" opacity=".8" class="H"><path d="M1403.987 756.921c-18.382-21.073 52.109-26.439 50.795-9.786-1.399 17.708-31.689 31.688-50.795 9.786"/></g></g><text transform="matrix(1 0 0 -1 1127.7134 565.9072)" class="E F M N"><tspan x="0 19.695 38.922 62.556 75.816 103.584" y="0">fojeks</tspan></text><text transform="matrix(1 0 0 -1 1141.8774 532.0967)" class="E F O P"><tspan x="0 18.562 26.709 45.36 64.161" y="0">udih </tspan></text><g clip-path="url(#Ap)"><path d="M1279.928 725.699c0-55.419-44.926-100.345-100.345-100.345s-100.345 44.926-100.345 100.345 44.926 100.345 100.345 100.345 100.345-44.926 100.345-100.345" class="Q"/><path d="M1251.36 753.626c17.064-42.815-.126-89.888-38.395-105.14s-83.126 7.092-100.189 49.907.126 89.887 38.395 105.14 83.126-7.092 100.189-49.907" class="G"/><path d="M1187.672 717.777s19.226 20.127 22.523 37.28c6.991 36.348-50.328 53.59-76.423 14.912-29.01-42.997-6.058-112.772 56.385-110.908 52.884 1.578 65.135 68.102 43.96 79.375-21.591 11.495-42.561-26.407-42.561-26.407z" class="I"/><path d="M1187.719 661.82c-24.171 0-44.316 11.818-55.271 32.425-12.23 23.003-10.765 52.805 3.642 74.159 8.874 13.153 22.598 20.697 37.651 20.697 11.571 0 22.225-4.534 28.498-12.128 4.948-5.991 6.751-13.386 5.211-21.389-3.107-16.157-19.125-36.836-19.311-37.031l-4.045-.475 7.697-11.391 2.25 7.827c.152.272 15.195 23.296 31.626 23.296 2.439 0 4.84-.619 7.136-1.843 7.541-4.014 10.388-17.165 6.924-31.982-4.415-18.883-20.069-41.247-49.653-42.13a77.68 77.68 0 0 0-2.355-.035" class="C"/></g><g clip-path="url(#Aq)"><path d="M1184.41 717.311c0-.621 6.835-8.7 6.835-8.7h0l13.824 15.845s-6.989 8.232-7.611 8.388h0s-13.048-14.912-13.048-15.533" fill="url(#Ar)"/></g><g clip-path="url(#As)"><path d="M1211.007 684.02c-4.726-3.439-10.616-5.862-17.792-6.58-1.091-.112-2.209-.177-3.364-.205-5.919-.14-11.501.923-16.609 2.973-20.234 8.1-33.104 31.614-30.691 56.908 2.675 28.035 23.589 41.838 41.931 38.361h.009c2.386-.447 4.735-1.202 6.991-2.246 11.593-5.387 14.362-18.621 11.09-31.809-2.237-9.069-7.326-18.118-14.353-24.577 0 0 2.098-3.029 3.495-3.495 6.227 10.355 12.293 16.459 17.587 18.976 8.165 3.886 14.483-.764 16.664-11.52 2.125-10.485-2.078-27.41-14.958-36.786" class="H"/><g clip-path="url(#At)" opacity=".3" class="H"><path d="M1188.749 687.14c-4.731-.111-9.193.738-13.276 2.377-16.175 6.474-26.464 25.272-24.535 45.492 2.421 25.332 24.359 37.804 39.115 28.87 8.415-5.094 9.166-15.289 6.551-25.832-1.789-7.249-5.566-13.011-11.184-18.174 0 0 6.105-11.743 7.224-12.115 12.665 21.047 24.464 22.367 24.975 14.213.762-12.141-5.401-34.272-28.87-34.831"/></g><path d="M1188.605 703.952s1.864 4.194 6.523 3.262 2.641-10.485 2.641-10.485 1.709.932 2.098-.311-3.651-1.631-3.651-1.631-2.096 5.748-5.591 6.058-6.525-.078-6.37.311 4.35 2.796 4.35 2.796" class="D"/><path d="M1194.973 689.192c-.624 2.33-2.637 10.41-6.831 8.705-.811-.327-1.641-.718-2.488-1.054-3.561-1.407-7.569-2.022-12.582 5.248-6.217 9.003-6.991 26.636-12.741 39.293-2.386 5.247-1.79 11.706.913 16.748 2.62 4.893 7.223 8.453 13.001 8.267a15.1 15.1 0 0 0 1.781-.159c15.219-2.33 14.912-19.106 13.514-22.834s2.479-4.66 1.398-8.08c-2.46-7.726-14.297-7.456-14.297-7.456s.01-.01.037-.019c.746-.345 12.732-6.021 15.658-14.269 1.09-3.085.326-5.657-.951-7.623-1.221-1.883-2.917-3.206-3.887-3.859 1.492.839 4.912 2.274 7.634-.326 3.486-3.327 1.5-10.513 1.407-10.858.196.103 2.489 1.333 2.936-.009.466-1.398-3.877-4.045-4.502-1.715" class="B"/><g clip-path="url(#Au)" class="K D"><path d="M1192.336 713.583c-2.927 8.248-14.912 13.924-15.658 14.269.475-.326 5.844-3.924 5.247-5.415-.624-1.556-5.75-2.33-5.75-2.33l-1.081-2.796c4.968-6.99 10.093-1.556 13.821-2.022 3.561-.448 3.44-5.993 2.47-9.33 1.277 1.967 2.041 4.539.951 7.624"/></g><g class="D"><path d="M1182.197 738.98s2.641-1.631 4.659.622c-.931-3.884-3.883-2.253-4.659-.622m-10.99 2.407c-4.427-1.165-3.728-7.146 1.476-5.98-4.738 1.32-3.185 5.048-1.476 5.98"/></g><path d="M1174.314 721.272c6.524-2.641 9.709.544 12.039 2.485s4.058-2.951 2.796-3.961c-.777-.621-2.719 1.165-2.719 1.165s-2.175-5.98-6.057-6.601-5.826 3.417-5.826 3.417z" class="B"/><g clip-path="url(#Av)" class="S H"><path d="M1202.569 741.421c2.189 25.751-16.05 34.176-34.158 27.848-19.339-6.757-24.465-30.756-21.437-49.862 2.629-16.59 13.16-32.294 26.264-39.199-20.233 8.099-33.105 31.613-30.69 56.907 3.029 31.688 29.358 45.202 48.929 36.115 11.595-5.387 14.363-18.621 11.092-31.809"/></g><g clip-path="url(#Aw)" class="S H"><path d="M1193.212 677.44c8.099 1.371 18.695 7.772 24.439 17.503 10.249 17.36 7.958 40.89-8.353 37.383 8.164 3.886 14.483-.764 16.664-11.52 2.908-14.324-6.011-40.7-32.75-43.366"/></g><path d="M1185.653 696.844c-3.561-1.407-7.568-2.022-12.582 5.248-6.217 9.002-6.99 26.636-12.74 39.293-2.387 5.247-1.79 11.706.913 16.748-2.461-6.841.429-16.879 3.551-23.692 3.848-8.388 3.15-17.018 7.232-27.615 3.439-8.947 9.45-10.587 13.626-9.982" class="D"/><g clip-path="url(#Ax)" class="S H"><path d="M1211.128 684.225l-.121-.205c-4.726-3.439-10.616-5.862-17.792-6.58-1.091-.112-2.209-.177-3.364-.205-5.919-.14-11.501.923-16.609 2.973-20.234 8.1-33.104 31.614-30.691 56.908 2.675 28.035 23.589 41.838 41.931 38.361h.009c11.799-5.247 8.556-23.617-1.789-35.565-13.514-15.611-17.708-37.513-4.194-46.833s38.678 2.33 32.62-8.854"/></g><g clip-path="url(#Ay)" opacity=".8" class="H"><path d="M1149.616 742.941c3.598-15.744 42.892 19.428 34.949 25.164-16.775 12.116-38.678-8.854-34.949-25.164"/></g></g><text transform="matrix(1 0 0 -1 857.0225 565.9072)" class="E F M N"><tspan x="0 24.258 48.867 73.125 73.281 96.915 110.175 137.943" y="0">m&lt;uqjeks</tspan></text><text transform="matrix(1 0 0 -1 888.3662 532.0967)" class="E F O P"><tspan x="0 18.562 26.709 45.36 64.161" y="0">udih </tspan></text><g clip-path="url(#Az)"><path d="M1026.417 725.699c0-55.419-44.927-100.345-100.346-100.345S825.726 670.28 825.726 725.699s44.926 100.345 100.345 100.345 100.346-44.926 100.346-100.345" class="Q"/><path d="M992.554 743.873c9.998-38.353-8.697-77.272-45.409-86.843s-74.577 13.763-84.575 52.115 13.045 78.391 48.37 86.771 71.617-13.69 81.614-52.043" class="G"/></g><g clip-path="url(#BA)"><path d="M929.644 725.233l5.281-9.942 20.194 11.495-8.699 22.368z" fill="url(#BB)"/></g><g clip-path="url(#BC)"><path d="M933.997 723.369c11.025 10.718 22.209 21.436 21.743 39.61s-17.678 31.742-43.804 21.902c-35.881-13.514-57.783-85.744 0-110.442 38.274-16.359 71.299 25.63 61.978 51.26s-37.901-5.281-37.901-5.281z" class="I"/><path d="M929.293 673.555c-5.424 0-10.894 1.163-16.257 3.455-30.157 12.889-34.172 37.125-33.882 50.423.521 23.812 15.354 47.896 33.768 54.831 5.504 2.074 10.768 3.124 15.645 3.124 14.237 0 24.034-9.034 24.378-22.48.431-16.803-7.966-28.236-18.796-38.762l-3.788-.412 5.322-7.788.33 4.472c3.749 4.047 17.403 12.651 25.948 12.651 4.238 0 7.289-2.722 9.326-8.326 3.261-8.968.76-21.001-6.525-31.404-8.677-12.388-21.937-19.784-35.469-19.784" class="C"/><path d="M933.997 764.377c-4.045-2.171-7.456-.308-7.456-.308-.746-.027-1.473.047-2.172.178-6.085 1.239-10.289 8.201-5.349 12.2 2.144 1.752 6.002 2.926 12.181 2.842 9.534-.13 13.43-2.759 13.887-5.787v-.01c.596-3.961-4.744-8.584-11.091-9.115" class="H"/><path d="M936.168 680.497l-1.128-.075c-12.143-.773-21.957 3.03-28.994 9.591-9.469 8.826-13.887 22.657-12.126 37.084 3.104 25.472 18.016 39.144 36.656 37.904 3.868-.26 7.139-.922 9.814-1.966 6.785-2.647 9.665-7.754 8.341-14.893-1.23-6.618-6.058-14.978-14.734-24.773l2.013-2.955s12.898 14.447 24.698 7.615c11.808-6.831 3.737-45.127-24.54-47.532" fill="#ab2b6f"/><path d="M931.983 682.18c-9.689 0-18.218 3.18-24.666 9.196-8.927 8.321-13.244 21.59-11.546 35.495 2.731 22.418 15.181 36.344 32.491 36.344a32.94 32.94 0 0 0 2.19-.074c7.163-.478 12.279-2.44 14.791-5.676 1.78-2.29 2.337-5.313 1.656-8.984-1.191-6.405-6.135-14.662-14.298-23.876l-.963-1.088 4.177-6.113 1.587 1.771c.08.088 8.009 8.825 16.513 8.825 2.072 0 4.043-.533 5.859-1.584 3.924-2.271 5.369-9.658 3.513-17.965-2.498-11.181-11.141-24.724-27.277-26.097a47.89 47.89 0 0 0-4.027-.174" class="H"/><g clip-path="url(#BD)" class="K H"><path d="M931.747 687.314c-8.447 0-15.874 2.765-21.479 7.996-7.787 7.257-11.548 18.852-10.063 31.018 2.387 19.586 13.198 31.753 28.215 31.753.626 0 1.267-.021 1.903-.063 6.158-.412 10.522-2.056 12.618-4.754 1.438-1.851 1.882-4.33 1.319-7.367-1.037-5.577-5.389-12.819-12.585-20.942l-1.291-1.458 4.702-6.883 2.127 2.382c.066.073 6.918 7.608 14.138 7.608a9.37 9.37 0 0 0 4.819-1.304c3.197-1.849 4.326-8.081 2.745-15.154-2.171-9.72-9.666-21.491-23.64-22.679a41.46 41.46 0 0 0-3.528-.153"/></g><path d="M943.932 705.661c-7.922-5.592-20.187-6.216-28.109 12.116s2.172 37.28 13.356 36.19c6.71-.653 10.447-5.714 10.932-10.374.326-3.103-.802-6.03-3.476-7.334-6.683-3.263-11.492 3.886-11.492 3.886l-3.113-4.967s12.74-.933 11.967-11.809c3.262.625 2.016-2.951 2.016-2.951s1.553-4.505 5.281-4.663a3.74 3.74 0 0 1 .662.028c3.225.289 4.409 3.671 6.021 3.233 1.705-.465 3.877-7.763-4.045-13.355" class="B"/><path d="M934.304 741.854a1.71 1.71 0 0 0-1.709-1.709 1.71 1.71 0 0 0-1.708 1.709 1.71 1.71 0 0 0 1.708 1.708 1.71 1.71 0 0 0 1.709-1.708" fill="#634530"/><g clip-path="url(#BE)" class="S H"><path d="M920.169 775.716c-4.668-3.395 23.921-5.747 22.834-1.553s-17.708 5.281-22.834 1.553"/></g><g clip-path="url(#BF)" class="L"><path d="M930.266 776.493c-1.043-1.489 5.747-2.175 6.834-.777s-5.747 2.33-6.834.777" fill="#ffb8b0"/></g><g clip-path="url(#BG)" opacity=".3"><path d="M943.932 705.661c-7.922-5.592-20.187-6.216-28.109 12.116s2.172 37.28 13.356 36.19c6.71-.653 10.447-5.714 10.932-10.374-.802 3.207-3.56 7.904-9.302 8.668-6.99.932-15.377-8.621-15.145-23.533s12.35-26.096 22.601-23.067c9.637 2.852 7.13 9.814 3.691 10.122 3.225.289 4.409 3.671 6.021 3.233 1.705-.465 3.877-7.763-4.045-13.355" fill="#db5932"/></g><g clip-path="url(#BH)" opacity=".3" class="B"><path d="M921.567 731.135c-1.243-3.883.776-7.611 5.126-10.563s5.747-12.582 12.582-10.873-2.33 4.35-5.126 10.252-2.175 8.543-3.883 10.252-7.439 4.871-8.699.932"/></g><g clip-path="url(#BI)" class="L H"><path d="M937.203 681.773c-.568-.522-1.295-.979-2.163-1.352-12.143-.773-21.957 3.03-28.994 9.591-9.469 8.826-13.886 22.657-12.125 37.084 3.103 25.472 18.015 39.144 36.656 37.905 3.867-.261 7.139-.923 9.814-1.967.13-.14.251-.28.372-.428 13.458-16.59-29.563-42.388-22.526-62.892 6.16-17.941 23.486-13.803 18.966-17.941"/></g><g fill="#ab2b6f"><path d="M925.608 764.684l-1.24-.438c-6.085 1.24-10.289 8.202-5.349 12.2-2.498-2.889-.559-9.711 6.589-11.762m8.389-.307s-3.608-.183-2.178.544c8.854.854 12.515 5.095 13.269 8.571.596-3.961-4.744-8.584-11.091-9.115"/></g><g clip-path="url(#BJ)" opacity=".8" class="H"><path d="M903.084 731.486c7.889-9.204 31.221 20.654 31.221 27.378s-16.811 1.921-24.977-6.724c-7.411-7.847-9.126-17.292-6.244-20.654"/></g></g><text transform="matrix(1 0 0 -1 687.8765 926.958)" font-size="71" font-family="FMGanganee" class="C F"><tspan x="0 52.824 79.094 127.658 192.907 217.757 266.747 314.033 362.029 414.285 414.569 467.961 468.245 507.224 532.074 580.07 628.35 653.2 692.179 718.449 770.705 823.529 876.779 924.775 925.059 978.309 978.593 1003.443 1042.422 1068.124" y="0">.e iuhkays Tn oek.;hq;= oE </tspan></text><g clip-path="url(#BK)"><path d="M369.015 482.764c-42.181-49.739-117.918-54.286-170.918-31.361-2.447 1.067-9.848 4.36-19.351 10.193 0 .031-.031.063-.094.063-22.642 13.923-57.203 42.148-66.015 88.532-8.06 42.495 9.753 77.776 12.544 83.108 9.283 17.751 20.949 29.761 29.009 36.849a57.38 57.38 0 0 0 6.272 15.681c6.053 10.412 14.05 16.497 18.817 19.601 1.474 5.708 18.002 66.079 79.188 89.379 66.705 25.404 123.312-17.311 126.229-19.6 2.885-4.203 9.158-14.677 9.408-29.26.345-19.883-10.694-33.306-13.579-36.599 2.321-5.551 5.99-16.496 4.704-30.326-1.913-20.229-13.266-33.4-17.249-37.634 8.374-8.436 20.197-22.769 26.909-43.373 2.289-7.087 3.763-14.175 4.484-21.231 3.858-36.285-11.258-71.504-30.358-94.022" class="E"/><path d="M369.015 482.764c-42.181-49.739-117.918-54.286-170.918-31.361-2.447 1.067-9.848 4.36-19.351 10.193 0 .031-.031.063-.094.063-17.688 14.613-31.769 30.67-40.143 45.411-7.526 13.265-23.865 42.024-14.896 73.698 3.419 12.075 9.471 21.013 14.113 26.658 3.136.188 26.374 2.07 39.985 21.953 8.343 12.168 8.75 24.775 8.624 29.793 4.485.658 17.971 3.23 29.01 14.897 7.558 7.996 10.537 16.621 11.76 21.169 3.701-8.28 12.827-25.529 32.146-38.418 31.517-21.044 65.545-14.05 72.131-12.545-9.534-12.324-8.907-27.096-1.568-33.713 5.393-4.861 13.234-4.234 15.68-3.921 1.693-17.624 15.556-31.737 32.93-33.712 7.369-.847 14.614.595 20.949 3.857 3.858-36.285-11.258-71.504-30.358-94.022" fill="#4f282e"/><path d="M309.299 582.845c3.292-1.106 8.152-2.902 13.778-5.637 28.208-13.709 43.273-35.269 52.609-48.224 51.892-72.008 79.35-89.847 73.902-118.368-2.105-11.017-7.654-15.957-8.768-16.91-13.06-11.17-35.723-3.841-47.598 0-9.86 3.189-48.321 14.268-72.024 50.729-36.209 55.702-16.845 122.77-11.899 138.41" class="T"/><path d="M380.07 440.678c7.291 2.001 17.325 3.501 28.183.626 11.753-3.112 19.568-10.053 20.042-9.395.579.807-12.273 9.602-25.052 21.92-20.207 19.48-26.569 34.599-30.062 33.194-2.413-.971-2.964-9.629 6.889-46.345" class="V"/><g fill="#3587b0"><path d="M418.419 188.701l-22.547-66.386-61.729-174.868c-7.71-2.246-17.238-4.204-28.225-4.704-25.854-1.177-46.365 6.328-58.018 11.76a1747.88 1747.88 0 0 0 6.644 84.307c4.891 47.403 11.46 92.084 19.058 133.817l144.817 16.074"/><path d="M277.359 167.616a1011.12 1011.12 0 0 0-47.032-103.755 1011.37 1011.37 0 0 0-63.464-105.216 110.4 110.4 0 0 0-27.741 2.812c-18.76 4.356-32.518 12.763-40.77 18.818a1325.59 1325.59 0 0 0 13.328 73.698c15.028 71.498 34.742 135.907 56.018 192.765l109.661-79.122"/></g><path d="M447.638 262.843c-1.982-11.133-6.074-26.404-15.288-42.338-29.359-50.766-96.96-84.452-161.511-70.171-8.624 1.908-71.381 16.856-96.436 74.483-10.137 23.314-10.376 45.044-9.409 58.019l282.644-19.993" fill="#2c6f91"/><path d="M290.178 649.241a136.5 136.5 0 0 1-3.136-20.385c-.906-11.755-.163-22.057 1.045-30.316l19.862-17.772 38.68-99.833-105.061-1.045-18.816 106.628 13.59 16.203c1.849 11.439 3.35 24.028 4.181 37.634 1.037 16.993.849 32.604 0 46.519l49.655-37.633" class="T"/><path d="M293.576 624.523c-3.811-1.668-8.406-3.262-13.721-4.312-14.997-2.962-27.678-.008-34.889 2.353a228.67 228.67 0 0 0-2.352 18.424 229.07 229.07 0 0 0-.785 25.481l51.747-41.946" class="V"/><path d="M320.013 827.739c8.992-5.516 20.245-14.079 30.186-27.049 27.161-35.44 23.718-76.628 22.345-88.204 6.142-14.51 5.671-26.016 4.703-32.538-4.364-29.428-33.225-54.381-72.522-62.33-9.549 1.544-49.328 9.076-72.916 43.906-18.582 27.439-17.173 57.143-16.072 80.363.939 19.812 1.678 35.394 10.976 50.179 24.76 39.367 86.953 36.093 93.3 35.673" class="T"/><g fill="#2f394a"><path d="M263.838 732.372c-.91.529-2.821 1.803-4.227 4.227a11.69 11.69 0 0 0-1.566 5.481 36.77 36.77 0 0 0 7.829 3.131c4.434 1.202 15.914 4.313 23.955-2.193 6.773-5.479 7.165-14.594 7.202-16.753zm96.276-3.952c.729.529 2.261 1.804 3.388 4.228 1.061 2.281 1.228 4.432 1.255 5.48-1.458.981-3.585 2.221-6.275 3.131-3.554 1.202-12.754 4.314-19.199-2.192-5.428-5.48-5.742-14.595-5.772-16.753l26.603 6.106"/></g><g class="R"><path d="M333.023 721.781c-.351-8.317 2.455-16.134 2.856-17.136l9.82 2.956 4.96 1.554c2.255.651 4.51 1.352 6.714 2.104.301.05.551.15.852.251 4.809 11.523 4.258 22.546-1.403 27.256-1.303 1.102-4.158 2.906-7.817 2.906-4.659 0-8.116-3.007-10.07-5.061-.451-.5-.802-.902-1.102-1.202-3.357-3.908-4.609-8.818-4.81-13.628m-67.589-6.864c.05-.05.1-.05.1-.1 4.71-1.303 9.57-2.755 14.481-4.259l2.955-1.001c3.859-1.203 7.566-2.506 11.173-3.758l2.155-.753c1.453 4.911 4.509 17.888-1.754 29.562-2.856 5.36-6.063 7.465-7.065 8.066-5.211 3.157-13.377 4.259-19.44-.2 0-.05 0-.05-.049-.05-5.211-3.959-6.113-10.071-6.364-12.075-1.152-7.867 2.706-13.829 3.808-15.432"/></g><path d="M312.957 682.301c2.003.154 5.605.702 9.408 2.939 5.046 2.97 7.495 7.178 8.428 9.017 1.056-4.202-.126-8.597-3.136-11.368-3.82-3.518-9.992-3.874-14.7-.588" fill="#db8783"/><path d="M280.403 671.127c-.15-2.254.05-4.81 1.001-7.465 3.158-8.718 11.976-11.473 14.682-12.326 3.155-1.001 9.469-3.005 15.882.401 7.516 3.958 9.219 12.176 9.419 13.328-1.854.1-3.858.301-5.962.651-3.307.451-6.914 1.203-10.722 2.255a81.77 81.77 0 0 0-22.496 10.421c-.501-1.052-1.604-3.757-1.804-7.265" class="R"/><g fill="#4f282e"><path d="M355.413 754.563c-.798-1.155-2.769.207-6.795-.523-5.492-.996-7.432-4.546-8.886-3.659-1.723 1.051-1.218 7.386 2.613 10.715.605.526 3.38 2.79 6.796 2.091 4.677-.957 7.499-6.848 6.272-8.624m-76.708 4.182c.798-1.155 2.769.207 6.795-.523 5.491-.996 7.431-4.546 8.886-3.659 1.723 1.051 1.218 7.386-2.614 10.715-.605.526-3.379 2.79-6.795 2.091-4.677-.957-7.499-6.848-6.272-8.624"/></g><path d="M386.264 754.824c-7.735.944-18.937 3.398-30.578 10.192-26.519 15.481-35.39 41.868-37.633 49.394-.997-10.615-4.141-24.874-14.373-36.588-10.667-12.211-20.751-12.173-33.976-19.34-38.578-20.906-31.569-63.974-62.199-75.789-8.228-3.174-22.023-5.219-43.907 4.704-.28 3.16-.306 7.766 1.046 13.067 1.99 7.799 5.956 13.158 8.363 15.942a143.74 143.74 0 0 0-1.568 27.441 143.71 143.71 0 0 0 3.92 28.226c16.311 23.068 33.368 38.396 45.474 47.825 19.946 15.539 37.355 28.711 61.155 28.226 11.478-.234 20.748-3.569 26.656-6.273 2.875 2.303 7.139 4.943 12.545 5.489 7.683.776 14.965-2.952 41.554-30.578 20.731-21.539 23.493-26.741 25.089-32.929 3.095-11.993.54-22.75-1.568-29.009" class="E"/><path d="M288.872 598.018c7.063-14.104 14.422-31.246 20.646-51.224a340.79 340.79 0 0 0 12.022-53.314l-66.381 1.568c-6.613 16.636-13.137 36.797-17.771 60.11-3.081 15.492-4.834 29.896-5.75 42.86l-58.018-38.679c-2.771-46.953-6.623-95.519-11.762-145.569-7.627-74.295-17.379-144.951-28.545-211.708 31.038-15.595 89.568-39.84 166.593-41.335 65.312-1.266 117.031 14.346 147.803 26.305 3.792 19.883 7.758 48.324 7.516 82.67-.125 17.833-.263 37.328-4.581 56.518-3.928 17.461-17.004 59.942-70.04 100.879 4.046 9.831 8.571 25.085 5.488 42.337-4.024 22.522-18.273 33.122-39.986 65.075-7.883 11.602-17.208 26.692-26.46 45.278l-30.774 18.229" fill="#fa85a5"/><g class="W"><path d="M385.994 469.926c-5.36-4.825-10.852-8.864-16.366-12.25-68.832-42.264-163.925 3.278-188.169 15.68l-25.6-79.023c35.976 14.789 86.403 30.431 147.909 34.334 28.483 1.807 54.364.781 76.934-1.569a69.67 69.67 0 0 1 4.9 14.407c2.608 11.769 1.621 21.88.392 28.421m-62.74 22.214l-.297 1.851c-2.429 15.094-5.74 30.188-9.84 44.863-5.816 20.823-13.363 41.346-22.431 60.997a1.57 1.57 0 0 1-2.082.767 1.57 1.57 0 0 1-.766-2.081 405.07 405.07 0 0 0 22.259-60.527c3.902-13.961 7.081-28.306 9.461-42.667l-63.324 1.124c-6.489 16.641-11.742 33.902-15.619 51.32a352.1 352.1 0 0 0-7.415 50.346c-.064.865-.823 1.519-1.681 1.448a1.57 1.57 0 0 1-1.448-1.678c1.258-17.027 3.776-34.116 7.481-50.795a355.35 355.35 0 0 1 16.147-52.764l.383-.976z"/></g><path d="M305.116 802.65c2.313-1.555.217-11.762-5.488-19.993-10.256-14.795-30.084-20.182-32.537-16.857-1.117 1.513 1.792 4.244.392 6.273-2.303 3.334-11.242-2.19-16.073 1.568-3.857 2.999-.251 8.712-4.313 12.544-4.368 4.122-11.33.144-14.504 4.312-2.269 2.981.35 6.251-1.96 8.624-3.483 3.58-12.396-.809-13.329 1.177-.772 1.646 5.009 5.404 4.312 6.664-.784 1.419-8.657-2.391-9.408-1.176-.831 1.344 7.359 8.36 18.425 16.072 15.854 11.05 30.029 18.248 30.969 16.857.657-.97-5.398-5.739-4.312-7.448.931-1.465 5.698 1.545 9.016-.784 2.372-1.664 1.165-4.063 3.528-5.88 3.348-2.575 7.9.602 10.193-1.96 1.435-1.605.132-3.388 1.568-4.705 2.431-2.229 7.662 1.505 9.409-.392 1.589-1.726-1.541-6.129 0-7.448 1.284-1.1 4.071 1.443 5.488.392 2.092-1.552-1.959-8.61 0-10.192 1.834-1.483 6.741 3.618 8.624 2.352" fill="#8a4550"/><g class="V"><path d="M279.869 696.689a15.8 15.8 0 0 0-15.797-15.798 15.8 15.8 0 0 0-15.798 15.798 15.8 15.8 0 0 0 15.798 15.797 15.8 15.8 0 0 0 15.797-15.797m94.753-4.966a15.8 15.8 0 0 0-15.797-15.797 15.8 15.8 0 0 0-15.798 15.797 15.8 15.8 0 0 0 15.798 15.798 15.8 15.8 0 0 0 15.797-15.798"/></g><g class="T"><path d="M199.699 574.912c-8.053-2.77-19.339-7.713-30.897-16.7-14.687-11.421-22.384-23.862-29.227-35.072-2.718-4.455-12.247-20.473-21.711-50.103-5.351-16.753-11.44-40.235-14.613-69.31l56.991-18.162c7.566 24.393 14.749 50.804 21.085 79.121 8.832 39.466 14.635 76.456 18.372 110.226m191.645-129.433c-5.805.332-10.655-2.913-16.284-6.68-3.441-2.302-9.705-7.177-8.768-9.186.405-.868 2.224-1.348 7.515-.417-3.271-.608-4.904-3.768-4.175-5.845.706-2.012 3.782-3.447 6.681-2.088 1.211-1.315 3.256-3.193 6.262-4.593 4.841-2.254 9.305-1.935 11.274-1.67l9.185-2.923c-4.928-.458-8.607-1.989-8.768-3.758-.196-2.162 4.901-4.257 7.933-5.01 1.984-.493 7.38-1.832 10.438.836 3.75 3.271 1.84 10.701.835 14.613-.359 1.396-6.951 25.855-22.128 26.721"/></g><g fill="#004d6b"><path d="M265.434 714.917c.05-.05.1-.05.1-.1 4.71-1.303 9.57-2.755 14.481-4.259l2.955-1.001c3.859-1.203 7.566-2.506 11.173-3.758 1.303 2.605 2.005 5.661 2.005 8.868 0 9.97-6.864 18.037-15.332 18.037-8.418 0-15.282-7.916-15.382-17.787m68.735-4.447c.33-2.477 1.08-4.465 1.71-5.825l9.82 2.956 4.96 1.554 6.714 2.104c2.45 7.963.238 15.547-4.86 18.764-.416.261-3.918 2.399-8.016 1.427-7.539-1.786-11.426-12.75-10.328-20.98"/></g><g class="R"><use xlink:href="#BO"/><path d="M285.705 726.265c0-3.185 1.809-5.767 4.041-5.767s4.04 2.582 4.04 5.767-1.809 5.768-4.04 5.768-4.041-2.582-4.041-5.768"/></g><path d="M279.864 403.101c-14.595-6.792-30.204-15.027-46.345-25.051-34.544-21.453-61.576-44.918-82.044-65.761l8.768 73.276 119.621 17.536" class="W"/><path d="M337.947 428.938c-3.021 6.657-32.928.017-32.217.156 19.585 3.837 23.789 5.607 23.684 6.509-.15 1.274-9.03 1.768-17.329.581-6.081-.87-10.44-2.44-22.269-7.235l-21.984-9.139-148.298 13.979c-1.976-1.455-15.437-11.718-16.701-30.062-1.452-21.082 14.503-34.007 15.866-35.072 18.779-.596 40.915.103 65.456 3.631 34.564 4.968 63.497 14.05 85.726 22.897 13.628-4.126 21.911-2.145 27.039.624 7.555 4.079 7.913 9.684 16.089 11.642 6.326 1.516 13.017-.185 16.815 4.059.685.763.845 1.24.742 1.622-.591 2.19-9.929 1.577-18.162.64 5.471 3.585 9.967 4.54 13.096 4.736 3.799.238 6.239.227 8.727 2.112 2.577 1.95 4.787 5.969 3.72 8.32" class="T"/><path d="M222.663 773.654c2.923 4.577 2.875 9.911.417 12.526-3.181 3.384-11.313 3.183-16.283-3.34-1.511 4.835-6.147 7.738-10.438 7.098-5.141-.767-9.109-6.523-7.515-12.526-3.408-.774-6.258-2.958-7.098-5.845-1.259-4.327 2.035-10.095 8.35-11.691-2.314-3.405-2.276-7.81 0-10.856 2.73-3.652 8.204-4.717 12.526-2.087 2.813-4.833 8.711-6.706 13.36-4.593 3.962 1.8 6.39 6.21 5.846 10.856 5.83-.512 10.942 3.948 11.273 9.603.339 5.787-4.445 10.888-10.438 10.855" fill="#fa85a5"/><path d="M196.359 765.291c0-6.003 4.211-10.869 9.406-10.869s9.405 4.866 9.405 10.869-4.21 10.869-9.405 10.869-9.406-4.867-9.406-10.869" class="W"/></g></g></svg>