<svg xmlns="http://www.w3.org/2000/svg" xmlns:xlink="http://www.w3.org/1999/xlink" height="1130.85" width="475.844" xmlns:v="https://vecta.io/nano"><defs><clipPath id="A"><path d="M0 1080h1920V0H0z"/></clipPath><path id="B" d="M349.377 726.265c0-3.185 1.809-5.767 4.041-5.767s4.04 2.582 4.04 5.767-1.809 5.768-4.04 5.768-4.041-2.582-4.041-5.768"/></defs><g clip-path="url(#A)" transform="matrix(1.333333 0 0 -1.333333 -131.13586 1130.8495)"><path d="M369.015 482.764c-42.181-49.739-117.918-54.286-170.918-31.361-2.447 1.067-9.848 4.36-19.351 10.193 0 .031-.031.063-.094.063-22.642 13.923-57.203 42.148-66.015 88.532-8.06 42.495 9.753 77.776 12.544 83.108 9.283 17.751 20.949 29.761 29.009 36.849a57.38 57.38 0 0 0 6.272 15.681c6.053 10.412 14.05 16.497 18.817 19.601 1.474 5.708 18.002 66.079 79.188 89.379 66.705 25.404 123.312-17.311 126.229-19.6 2.885-4.203 9.158-14.677 9.408-29.26.345-19.883-10.694-33.306-13.579-36.599 2.321-5.551 5.99-16.496 4.704-30.326-1.913-20.229-13.266-33.4-17.249-37.634 8.374-8.436 20.197-22.769 26.909-43.373 2.289-7.087 3.763-14.175 4.484-21.231 3.858-36.285-11.258-71.504-30.358-94.022" fill="#66333b"/><path d="M369.015 482.764c-42.181-49.739-117.918-54.286-170.918-31.361-2.447 1.067-9.848 4.36-19.351 10.193 0 .031-.031.063-.094.063-17.688 14.613-31.769 30.67-40.143 45.411-7.526 13.265-23.865 42.024-14.896 73.698 3.419 12.075 9.471 21.013 14.113 26.658 3.136.188 26.374 2.07 39.985 21.953 8.343 12.168 8.75 24.775 8.624 29.793 4.485.658 17.971 3.23 29.01 14.897 7.558 7.996 10.537 16.621 11.76 21.169 3.701-8.28 12.827-25.529 32.146-38.418 31.517-21.044 65.545-14.05 72.131-12.545-9.534-12.324-8.907-27.096-1.568-33.713 5.393-4.861 13.234-4.234 15.68-3.921 1.693-17.624 15.556-31.737 32.93-33.712 7.369-.847 14.614.595 20.949 3.857 3.858-36.285-11.258-71.504-30.358-94.022" fill="#4f282e"/><path d="M309.299 582.845c3.292-1.106 8.152-2.902 13.778-5.637 28.208-13.709 43.273-35.269 52.609-48.224 51.892-72.008 79.35-89.847 73.902-118.368-2.105-11.017-7.654-15.957-8.768-16.91-13.06-11.17-35.723-3.841-47.598 0-9.86 3.189-48.321 14.268-72.024 50.729-36.209 55.702-16.845 122.77-11.899 138.41" fill="#ffcbbd"/><path d="M380.07 440.678c7.291 2.001 17.325 3.501 28.183.626 11.753-3.112 19.568-10.053 20.042-9.395.579.807-12.273 9.602-25.052 21.92-20.207 19.48-26.569 34.599-30.062 33.194-2.413-.971-2.964-9.629 6.889-46.345" fill="#ffaba8"/><g fill="#3587b0"><path d="M418.419 188.701l-22.547-66.386-61.729-174.868c-7.71-2.246-17.238-4.204-28.225-4.704-25.854-1.177-46.365 6.328-58.018 11.76a1747.88 1747.88 0 0 0 6.644 84.307c4.891 47.403 11.46 92.084 19.058 133.817l144.817 16.074"/><path d="M277.359 167.616a1011.12 1011.12 0 0 0-47.032-103.755 1011.37 1011.37 0 0 0-63.464-105.216 110.4 110.4 0 0 0-27.741 2.812c-18.76 4.356-32.518 12.763-40.77 18.818a1325.59 1325.59 0 0 0 13.328 73.698c15.028 71.498 34.742 135.907 56.018 192.765l109.661-79.122"/></g><path d="M447.638 262.843c-1.982-11.133-6.074-26.404-15.288-42.338-29.359-50.766-96.96-84.452-161.511-70.171-8.624 1.908-71.381 16.856-96.436 74.483-10.137 23.314-10.376 45.044-9.409 58.019l282.644-19.993" fill="#2c6f91"/><path d="M290.178 649.241a136.5 136.5 0 0 1-3.136-20.385c-.906-11.755-.163-22.057 1.045-30.316l19.862-17.772 38.68-99.833-105.061-1.045-18.816 106.628 13.59 16.203c1.849 11.439 3.35 24.028 4.181 37.634 1.037 16.993.849 32.604 0 46.519l49.655-37.633" fill="#ffcbbd"/><path d="M293.576 624.523c-3.811-1.668-8.406-3.262-13.721-4.312-14.997-2.962-27.678-.008-34.889 2.353a228.67 228.67 0 0 0-2.352 18.424 229.07 229.07 0 0 0-.785 25.481l51.747-41.946" fill="#ffaba8"/><path d="M320.013 827.739c8.992-5.516 20.245-14.079 30.186-27.049 27.161-35.44 23.718-76.628 22.345-88.204 6.142-14.51 5.671-26.016 4.703-32.538-4.364-29.428-33.225-54.381-72.522-62.33-9.549 1.544-49.328 9.076-72.916 43.906-18.582 27.439-17.173 57.143-16.072 80.363.939 19.812 1.678 35.394 10.976 50.179 24.76 39.367 86.953 36.093 93.3 35.673" fill="#ffcbbd"/><g fill="#2f394a"><path d="M263.838 732.372c-.91.529-2.821 1.803-4.227 4.227a11.69 11.69 0 0 0-1.566 5.481 36.77 36.77 0 0 0 7.829 3.131c4.434 1.202 15.914 4.313 23.955-2.193 6.773-5.479 7.165-14.594 7.202-16.753zm96.276-3.952c.729.529 2.261 1.804 3.388 4.228 1.061 2.281 1.228 4.432 1.255 5.48-1.458.981-3.585 2.221-6.275 3.131-3.554 1.202-12.754 4.314-19.199-2.192-5.428-5.48-5.742-14.595-5.772-16.753l26.603 6.106"/></g><g fill="#fff"><path d="M333.023 721.781c-.351-8.317 2.455-16.134 2.856-17.136l9.82 2.956 4.96 1.554c2.255.651 4.51 1.352 6.714 2.104.301.05.551.15.852.251 4.809 11.523 4.258 22.546-1.403 27.256-1.303 1.102-4.158 2.906-7.817 2.906-4.659 0-8.116-3.007-10.07-5.061-.451-.5-.802-.902-1.102-1.202-3.357-3.908-4.609-8.818-4.81-13.628m-67.589-6.864c.05-.05.1-.05.1-.1 4.71-1.303 9.57-2.755 14.481-4.259l2.955-1.001c3.859-1.203 7.566-2.506 11.173-3.758l2.155-.753c1.453 4.911 4.509 17.888-1.754 29.562-2.856 5.36-6.063 7.465-7.065 8.066-5.211 3.157-13.377 4.259-19.44-.2 0-.05 0-.05-.049-.05-5.211-3.959-6.113-10.071-6.364-12.075-1.152-7.867 2.706-13.829 3.808-15.432"/></g><path d="M312.957 682.301c2.003.154 5.605.702 9.408 2.939 5.046 2.97 7.495 7.178 8.428 9.017 1.056-4.202-.126-8.597-3.136-11.368-3.82-3.518-9.992-3.874-14.7-.588" fill="#db8783"/><path d="M280.403 671.127c-.15-2.254.05-4.81 1.001-7.465 3.158-8.718 11.976-11.473 14.682-12.326 3.155-1.001 9.469-3.005 15.882.401 7.516 3.958 9.219 12.176 9.419 13.328-1.854.1-3.858.301-5.962.651-3.307.451-6.914 1.203-10.722 2.255a81.77 81.77 0 0 0-22.496 10.421c-.501-1.052-1.604-3.757-1.804-7.265" fill="#fff"/><g fill="#4f282e"><path d="M355.413 754.563c-.798-1.155-2.769.207-6.795-.523-5.492-.996-7.432-4.546-8.886-3.659-1.723 1.051-1.218 7.386 2.613 10.715.605.526 3.38 2.79 6.796 2.091 4.677-.957 7.499-6.848 6.272-8.624m-76.708 4.182c.798-1.155 2.769.207 6.795-.523 5.491-.996 7.431-4.546 8.886-3.659 1.723 1.051 1.218 7.386-2.614 10.715-.605.526-3.379 2.79-6.795 2.091-4.677-.957-7.499-6.848-6.272-8.624"/></g><path d="M386.264 754.824c-7.735.944-18.937 3.398-30.578 10.192-26.519 15.481-35.39 41.868-37.633 49.394-.997-10.615-4.141-24.874-14.373-36.588-10.667-12.211-20.751-12.173-33.976-19.34-38.578-20.906-31.569-63.974-62.199-75.789-8.228-3.174-22.023-5.219-43.907 4.704-.28 3.16-.306 7.766 1.046 13.067 1.99 7.799 5.956 13.158 8.363 15.942a143.74 143.74 0 0 0-1.568 27.441 143.71 143.71 0 0 0 3.92 28.226c16.311 23.068 33.368 38.396 45.474 47.825 19.946 15.539 37.355 28.711 61.155 28.226 11.478-.234 20.748-3.569 26.656-6.273 2.875 2.303 7.139 4.943 12.545 5.489 7.683.776 14.965-2.952 41.554-30.578 20.731-21.539 23.493-26.741 25.089-32.929 3.095-11.993.54-22.75-1.568-29.009" fill="#66333b"/><path d="M288.872 598.018c7.063-14.104 14.422-31.246 20.646-51.224a340.79 340.79 0 0 0 12.022-53.314l-66.381 1.568c-6.613 16.636-13.137 36.797-17.771 60.11-3.081 15.492-4.834 29.896-5.75 42.86l-58.018-38.679c-2.771-46.953-6.623-95.519-11.762-145.569-7.627-74.295-17.379-144.951-28.545-211.708 31.038-15.595 89.568-39.84 166.593-41.335 65.312-1.266 117.031 14.346 147.803 26.305 3.792 19.883 7.758 48.324 7.516 82.67-.125 17.833-.263 37.328-4.581 56.518-3.928 17.461-17.004 59.942-70.04 100.879 4.046 9.831 8.571 25.085 5.488 42.337-4.024 22.522-18.273 33.122-39.986 65.075-7.883 11.602-17.208 26.692-26.46 45.278l-30.774 18.229" fill="#fa85a5"/><g fill="#f26d91"><path d="M385.994 469.926c-5.36-4.825-10.852-8.864-16.366-12.25-68.832-42.264-163.925 3.278-188.169 15.68l-25.6-79.023c35.976 14.789 86.403 30.431 147.909 34.334 28.483 1.807 54.364.781 76.934-1.569a69.67 69.67 0 0 1 4.9 14.407c2.608 11.769 1.621 21.88.392 28.421m-62.74 22.214l-.297 1.851c-2.429 15.094-5.74 30.188-9.84 44.863-5.816 20.823-13.363 41.346-22.431 60.997a1.57 1.57 0 0 1-2.082.767 1.57 1.57 0 0 1-.766-2.081 405.07 405.07 0 0 0 22.259-60.527c3.902-13.961 7.081-28.306 9.461-42.667l-63.324 1.124c-6.489 16.641-11.742 33.902-15.619 51.32a352.1 352.1 0 0 0-7.415 50.346c-.064.865-.823 1.519-1.681 1.448a1.57 1.57 0 0 1-1.448-1.678c1.258-17.027 3.776-34.116 7.481-50.795a355.35 355.35 0 0 1 16.147-52.764l.383-.976z"/></g><path d="M305.116 802.65c2.313-1.555.217-11.762-5.488-19.993-10.256-14.795-30.084-20.182-32.537-16.857-1.117 1.513 1.792 4.244.392 6.273-2.303 3.334-11.242-2.19-16.073 1.568-3.857 2.999-.251 8.712-4.313 12.544-4.368 4.122-11.33.144-14.504 4.312-2.269 2.981.35 6.251-1.96 8.624-3.483 3.58-12.396-.809-13.329 1.177-.772 1.646 5.009 5.404 4.312 6.664-.784 1.419-8.657-2.391-9.408-1.176-.831 1.344 7.359 8.36 18.425 16.072 15.854 11.05 30.029 18.248 30.969 16.857.657-.97-5.398-5.739-4.312-7.448.931-1.465 5.698 1.545 9.016-.784 2.372-1.664 1.165-4.063 3.528-5.88 3.348-2.575 7.9.602 10.193-1.96 1.435-1.605.132-3.388 1.568-4.705 2.431-2.229 7.662 1.505 9.409-.392 1.589-1.726-1.541-6.129 0-7.448 1.284-1.1 4.071 1.443 5.488.392 2.092-1.552-1.959-8.61 0-10.192 1.834-1.483 6.741 3.618 8.624 2.352" fill="#8a4550"/><g fill="#ffaba8"><path d="M279.869 696.689a15.8 15.8 0 0 0-15.797-15.798 15.8 15.8 0 0 0-15.798 15.798 15.8 15.8 0 0 0 15.798 15.797 15.8 15.8 0 0 0 15.797-15.797m94.753-4.966a15.8 15.8 0 0 0-15.797-15.797 15.8 15.8 0 0 0-15.798 15.797 15.8 15.8 0 0 0 15.798 15.798 15.8 15.8 0 0 0 15.797-15.798"/></g><g fill="#ffcbbd"><path d="M199.699 574.912c-8.053-2.77-19.339-7.713-30.897-16.7-14.687-11.421-22.384-23.862-29.227-35.072-2.718-4.455-12.247-20.473-21.711-50.103-5.351-16.753-11.44-40.235-14.613-69.31l56.991-18.162c7.566 24.393 14.749 50.804 21.085 79.121 8.832 39.466 14.635 76.456 18.372 110.226m191.645-129.433c-5.805.332-10.655-2.913-16.284-6.68-3.441-2.302-9.705-7.177-8.768-9.186.405-.868 2.224-1.348 7.515-.417-3.271-.608-4.904-3.768-4.175-5.845.706-2.012 3.782-3.447 6.681-2.088 1.211-1.315 3.256-3.193 6.262-4.593 4.841-2.254 9.305-1.935 11.274-1.67l9.185-2.923c-4.928-.458-8.607-1.989-8.768-3.758-.196-2.162 4.901-4.257 7.933-5.01 1.984-.493 7.38-1.832 10.438.836 3.75 3.271 1.84 10.701.835 14.613-.359 1.396-6.951 25.855-22.128 26.721"/></g><g fill="#004d6b"><path d="M265.434 714.917c.05-.05.1-.05.1-.1 4.71-1.303 9.57-2.755 14.481-4.259l2.955-1.001c3.859-1.203 7.566-2.506 11.173-3.758 1.303 2.605 2.005 5.661 2.005 8.868 0 9.97-6.864 18.037-15.332 18.037-8.418 0-15.282-7.916-15.382-17.787m68.735-4.447c.33-2.477 1.08-4.465 1.71-5.825l9.82 2.956 4.96 1.554 6.714 2.104c2.45 7.963.238 15.547-4.86 18.764-.416.261-3.918 2.399-8.016 1.427-7.539-1.786-11.426-12.75-10.328-20.98"/></g><g fill="#fff"><use xlink:href="#B"/><path d="M285.705 726.265c0-3.185 1.809-5.767 4.041-5.767s4.04 2.582 4.04 5.767-1.809 5.768-4.04 5.768-4.041-2.582-4.041-5.768"/></g><path d="M279.864 403.101c-14.595-6.792-30.204-15.027-46.345-25.051-34.544-21.453-61.576-44.918-82.044-65.761l8.768 73.276 119.621 17.536" fill="#f26d91"/><path d="M337.947 428.938c-3.021 6.657-32.928.017-32.217.156 19.585 3.837 23.789 5.607 23.684 6.509-.15 1.274-9.03 1.768-17.329.581-6.081-.87-10.44-2.44-22.269-7.235l-21.984-9.139-148.298 13.979c-1.976-1.455-15.437-11.718-16.701-30.062-1.452-21.082 14.503-34.007 15.866-35.072 18.779-.596 40.915.103 65.456 3.631 34.564 4.968 63.497 14.05 85.726 22.897 13.628-4.126 21.911-2.145 27.039.624 7.555 4.079 7.913 9.684 16.089 11.642 6.326 1.516 13.017-.185 16.815 4.059.685.763.845 1.24.742 1.622-.591 2.19-9.929 1.577-18.162.64 5.471 3.585 9.967 4.54 13.096 4.736 3.799.238 6.239.227 8.727 2.112 2.577 1.95 4.787 5.969 3.72 8.32" fill="#ffcbbd"/><path d="M222.663 773.654c2.923 4.577 2.875 9.911.417 12.526-3.181 3.384-11.313 3.183-16.283-3.34-1.511 4.835-6.147 7.738-10.438 7.098-5.141-.767-9.109-6.523-7.515-12.526-3.408-.774-6.258-2.958-7.098-5.845-1.259-4.327 2.035-10.095 8.35-11.691-2.314-3.405-2.276-7.81 0-10.856 2.73-3.652 8.204-4.717 12.526-2.087 2.813-4.833 8.711-6.706 13.36-4.593 3.962 1.8 6.39 6.21 5.846 10.856 5.83-.512 10.942 3.948 11.273 9.603.339 5.787-4.445 10.888-10.438 10.855" fill="#fa85a5"/><path d="M196.359 765.291c0-6.003 4.211-10.869 9.406-10.869s9.405 4.866 9.405 10.869-4.21 10.869-9.405 10.869-9.406-4.867-9.406-10.869" fill="#f26d91"/></g></svg>